<svg width="421" height="473" viewBox="0 0 421 473" fill="none" xmlns="http://www.w3.org/2000/svg">
<path d="M390.707 154.933L215.232 53.6283L39.7566 154.933V357.541L215.232 458.845L390.707 357.541V154.933Z" stroke="#F48200" stroke-width="2"/>
<g filter="url(#filter0_d_1676_3386)">
<mask id="mask0_1676_3386" style="mask-type:alpha" maskUnits="userSpaceOnUse" x="27" y="25" width="349" height="403">
<path d="M201.494 25L27.0017 125.737V327.211L201.494 427.947L375.986 327.211V125.737L201.494 25Z" fill="#C4C4C4"/>
</mask>
<g mask="url(#mask0_1676_3386)">
<path d="M201.494 25L27.0017 125.737V327.211L201.494 427.947L375.986 327.211V125.737L201.494 25Z" fill="white"/>
</g>
</g>
<path d="M154.67 212.93L156.892 227.967H145.214L154.67 212.93ZM152.603 205.128L126.25 244.192H134.983L140.822 234.891H157.874L159.165 244.192H168.363L161.387 205.128H152.603Z" fill="#14447A"/>
<path d="M255.841 212.104C260.75 212.104 262.92 212.982 261.939 217.013C260.957 220.991 258.321 221.973 253.361 221.973H243.233L245.662 212.155H255.841V212.104ZM239.254 205.128L229.488 244.192H237.756L241.58 228.846H251.294L256.1 244.192H265.401L259.717 227.864C265.091 226.779 268.863 222.903 270.361 216.858C272.428 208.642 268.863 205.128 259.562 205.128H239.254Z" fill="#14447A"/>
<path d="M59.3838 220.991H82.223L80.5178 227.812H57.6269C55.9218 234.84 58.092 237.372 64.6027 237.372H78.1409L76.4357 244.192H62.4842C57.7303 244.192 54.1649 243.831 51.1162 240.782C47.8609 237.578 47.1891 232.463 48.946 225.384C52.408 211.587 59.8489 205.128 72.4569 205.128H86.1501L84.4449 211.949H70.9068C64.9644 211.949 61.244 214.842 59.3838 220.991Z" fill="#14447A"/>
<path d="M199.262 220.991H218.743L212.955 244.141H195.18C190.426 244.141 186.706 243.882 183.554 240.73C180.298 237.526 179.627 232.411 181.383 225.332C184.846 211.535 192.338 205.076 204.894 205.076H222.67L220.965 211.845H203.189C196.575 211.845 192.855 216.031 190.633 224.97C188.566 233.289 190.219 237.113 196.885 237.113H206.186L208.46 227.915H197.402L199.262 220.991Z" fill="#14447A"/>
<path d="M289.743 205.128H298.372L288.606 244.192H279.977L289.743 205.128Z" fill="#14447A"/>
<path d="M314.644 205.128L304.93 244.192H323.118C327.872 244.192 331.644 243.831 336.191 240.782C341.049 237.578 344.304 232.463 346.061 225.384C349.523 211.587 345.234 205.128 332.626 205.128H314.644ZM330.766 211.949C338.103 211.949 339.602 215.101 337.225 224.66C334.848 234.271 331.748 237.372 324.41 237.372H314.851L321.206 211.897H330.766V211.949Z" fill="#14447A"/>
<path d="M125.112 249.669L113.848 224.815L128.678 205.179H118.291L109.92 216.186L101.395 197.325C101.395 197.325 100.309 195.052 96.6923 195H96.3306C95.8656 195 95.4005 195.052 94.8838 195.103C89.4582 195.93 53.1325 199.289 53.1325 199.289L52.9258 199.599H92.7652L103.616 224.35L88.4764 244.192H99.1209L107.44 233.134L116.638 254.165C116.638 254.165 118.085 257.265 122.942 256.904C130.951 256.283 343.066 250.186 343.066 250.186L343.531 249.618H125.112V249.669Z" fill="#33A93D"/>
<path d="M353.969 211.741C353.4 211.741 352.884 211.638 352.367 211.431C351.85 211.225 351.437 210.915 351.075 210.553C350.713 210.191 350.403 209.778 350.197 209.261C349.99 208.796 349.887 208.228 349.887 207.659C349.887 207.091 349.99 206.574 350.197 206.109C350.403 205.592 350.713 205.179 351.075 204.817C351.437 204.456 351.85 204.146 352.367 203.939C352.832 203.732 353.4 203.629 353.969 203.629C354.537 203.629 355.054 203.732 355.519 203.939C356.036 204.146 356.449 204.456 356.811 204.817C357.173 205.179 357.483 205.592 357.689 206.109C357.896 206.626 357.999 207.143 357.999 207.659C357.999 208.228 357.896 208.744 357.689 209.261C357.483 209.778 357.173 210.191 356.811 210.553C356.449 210.915 356.036 211.225 355.519 211.431C355.054 211.638 354.537 211.741 353.969 211.741ZM353.969 211.173C354.486 211.173 354.899 211.07 355.312 210.915C355.726 210.708 356.087 210.501 356.397 210.191C356.707 209.881 356.914 209.52 357.121 209.055C357.276 208.641 357.379 208.176 357.379 207.659C357.379 207.143 357.276 206.729 357.121 206.264C356.966 205.851 356.707 205.489 356.397 205.127C356.087 204.817 355.726 204.559 355.312 204.404C354.899 204.197 354.434 204.146 353.969 204.146C353.452 204.146 353.039 204.249 352.625 204.404C352.212 204.611 351.85 204.817 351.54 205.127C351.23 205.437 351.024 205.799 350.817 206.264C350.662 206.678 350.558 207.143 350.558 207.659C350.558 208.176 350.662 208.641 350.817 209.055C350.972 209.468 351.23 209.83 351.54 210.191C351.85 210.501 352.212 210.76 352.625 210.915C353.039 211.121 353.504 211.173 353.969 211.173ZM355.984 209.933H355.312L354.021 207.866H352.987V209.933H352.47V205.437H354.434C355.054 205.437 355.467 205.541 355.674 205.747C355.932 205.954 356.036 206.264 356.036 206.626C356.036 206.833 355.984 207.039 355.932 207.194C355.881 207.349 355.777 207.453 355.622 207.556C355.519 207.659 355.364 207.711 355.157 207.763C355.002 207.814 354.796 207.814 354.589 207.866L355.984 209.933ZM353.866 207.401C354.021 207.401 354.176 207.401 354.382 207.401C354.589 207.401 354.744 207.401 354.899 207.349C355.054 207.298 355.209 207.246 355.312 207.091C355.416 206.988 355.467 206.781 355.467 206.574C355.467 206.419 355.416 206.264 355.364 206.161C355.312 206.058 355.209 205.954 355.106 205.902C355.002 205.851 354.899 205.799 354.744 205.799C354.589 205.799 354.486 205.747 354.331 205.747H353.039V207.349H353.866V207.401Z" fill="#14447A"/>
<defs>
<filter id="filter0_d_1676_3386" x="2" y="0" width="418.988" height="472.947" filterUnits="userSpaceOnUse" color-interpolation-filters="sRGB">
<feFlood flood-opacity="0" result="BackgroundImageFix"/>
<feColorMatrix in="SourceAlpha" type="matrix" values="0 0 0 0 0 0 0 0 0 0 0 0 0 0 0 0 0 0 127 0" result="hardAlpha"/>
<feMorphology radius="10" operator="erode" in="SourceAlpha" result="effect1_dropShadow_1676_3386"/>
<feOffset dx="10" dy="10"/>
<feGaussianBlur stdDeviation="22.5"/>
<feColorMatrix type="matrix" values="0 0 0 0 0.956863 0 0 0 0 0.509804 0 0 0 0 0 0 0 0 0.15 0"/>
<feBlend mode="normal" in2="BackgroundImageFix" result="effect1_dropShadow_1676_3386"/>
<feBlend mode="normal" in="SourceGraphic" in2="effect1_dropShadow_1676_3386" result="shape"/>
</filter>
</defs>
</svg>
