<svg width="421" height="473" viewBox="0 0 421 473" fill="none" xmlns="http://www.w3.org/2000/svg">
<path d="M390.674 154.933L215.21 53.6283L39.7457 154.933V357.541L215.21 458.845L390.674 357.541V154.933Z" stroke="#F48200" stroke-width="2"/>
<g filter="url(#filter0_d_1674_3375)">
<mask id="mask0_1674_3375" style="mask-type:alpha" maskUnits="userSpaceOnUse" x="26" y="25" width="350" height="403">
<path d="M201.472 25L26.9906 125.737V327.21L201.472 427.947L375.953 327.21V125.737L201.472 25Z" fill="#C4C4C4"/>
</mask>
<g mask="url(#mask0_1674_3375)">
<path d="M201.472 25L26.9906 125.737V327.21L201.472 427.947L375.953 327.21V125.737L201.472 25Z" fill="white"/>
</g>
</g>
<path d="M297.695 233.635C299.622 234.492 300.479 235.992 299.837 237.705C299.194 239.419 297.695 239.847 296.409 239.419C286.199 235.992 277.274 246.845 277.274 253.414V276.976C277.274 278.904 275.989 280.618 274.061 280.618C272.133 280.618 270.848 279.118 270.848 276.976V235.992C270.848 234.921 271.49 232.564 274.061 232.564C276.845 232.564 277.274 234.921 277.274 235.992V240.276C278.987 237.92 281.129 235.992 283.628 234.778C286.199 233.493 288.912 232.85 292.125 232.85C294.267 232.636 296.409 233.064 297.695 233.635Z" fill="#223344"/>
<path d="M97.915 273.62H71.9962C72.2104 273.406 100.485 238.99 100.7 238.776C102.627 236.206 101.342 234.135 100.7 233.493C99.6286 232.636 98.5576 232.636 97.4865 232.636H90.4892H72.4246H70.0684H65.4273C63.4994 232.636 62 234.135 62 236.063C62 237.991 63.4994 239.49 65.4273 239.49H91.7744C91.5602 239.919 63.2852 274.12 63.071 274.334C61.1432 276.905 62.4284 278.975 63.071 279.618C64.142 280.475 65.2131 280.475 66.2841 280.475H70.711H73.4956H91.5602H93.4881H97.915C99.8428 280.475 101.342 278.975 101.342 277.047C101.342 275.12 99.8428 273.62 97.915 273.62Z" fill="#223344"/>
<path d="M149.323 244.274C147.181 240.633 144.468 237.705 140.826 235.778C137.185 233.635 133.186 232.564 128.688 232.564C124.261 232.564 120.191 233.635 116.55 235.778C112.908 237.92 110.195 240.633 108.053 244.274C105.911 247.916 104.84 251.914 104.84 256.413C104.84 260.839 105.911 264.909 107.839 268.551C109.981 272.192 112.694 274.906 116.121 277.048C119.549 279.19 123.547 280.261 127.831 280.261C131.473 280.261 134.828 279.404 138.042 277.904C141.04 276.405 143.539 274.263 145.681 271.55V277.048C145.681 278.975 147.181 280.475 149.109 280.475C151.037 280.475 152.322 278.975 152.536 277.262V256.841C152.536 252.128 151.465 248.13 149.323 244.274ZM143.825 265.552C142.326 268.337 140.184 270.407 137.685 271.907C135.114 273.406 132.187 274.263 128.974 274.263C125.76 274.263 122.833 273.406 120.048 271.907C117.478 270.407 115.407 268.265 113.908 265.552C112.408 262.767 111.552 259.84 111.552 256.413C111.552 252.985 112.408 250.058 113.908 247.273C115.407 244.489 117.549 242.418 120.048 240.918C122.619 239.419 125.546 238.562 128.974 238.562C132.401 238.562 135.114 239.419 137.685 240.918C140.255 242.418 142.326 244.56 143.825 247.273C145.324 250.058 146.181 252.985 146.181 256.413C145.967 259.84 145.324 262.981 143.825 265.552Z" fill="#223344"/>
<path d="M344.393 244.274C342.251 240.633 339.538 237.705 335.896 235.778C332.255 233.635 328.257 232.564 323.758 232.564C319.26 232.564 315.261 233.635 311.62 235.778C307.978 237.92 305.265 240.633 303.123 244.274C300.981 247.916 299.91 251.914 299.91 256.413C299.91 260.839 300.981 264.909 302.909 268.551C305.051 272.192 307.764 274.906 311.192 277.048C314.619 279.19 318.617 280.261 322.901 280.261C326.543 280.261 329.899 279.404 333.112 277.904C336.111 276.405 338.61 274.263 340.752 271.55V277.048C340.752 278.975 342.251 280.475 344.179 280.475C346.107 280.475 347.392 278.975 347.606 277.262V256.841C347.392 252.128 346.535 248.13 344.393 244.274ZM338.681 265.552C337.182 268.337 335.04 270.407 332.541 271.907C329.97 273.406 327.043 274.263 323.83 274.263C320.617 274.263 317.689 273.406 314.904 271.907C312.334 270.407 310.263 268.265 308.764 265.552C307.264 262.767 306.408 259.84 306.408 256.413C306.408 252.985 307.264 250.058 308.764 247.273C310.263 244.489 312.405 242.418 314.904 240.918C317.475 239.419 320.402 238.562 323.83 238.562C327.257 238.562 329.97 239.419 332.541 240.918C335.111 242.418 337.182 244.56 338.681 247.273C340.181 250.058 341.037 252.985 341.037 256.413C341.037 259.84 340.181 262.981 338.681 265.552Z" fill="#223344"/>
<path d="M258.999 244.274C256.857 240.633 254.143 237.705 250.502 235.778C246.861 233.635 242.862 232.564 238.364 232.564C233.937 232.564 229.867 233.635 226.225 235.778C222.584 237.92 219.871 240.633 217.729 244.274C215.587 247.916 214.516 251.914 214.516 256.413C214.516 260.839 215.587 264.909 217.514 268.551C219.657 272.192 222.37 274.906 225.797 277.048C229.224 279.19 233.223 280.261 237.507 280.261C241.148 280.261 244.504 279.404 247.717 277.904C250.716 276.405 253.215 274.263 255.357 271.55V277.048C255.357 278.975 256.857 280.475 258.785 280.475C260.712 280.475 261.998 278.975 262.212 277.262V256.841C262.212 252.128 261.141 248.13 258.999 244.274ZM253.501 265.552C252.001 268.337 249.859 270.407 247.36 271.907C244.861 273.406 241.862 274.263 238.649 274.263C235.436 274.263 232.509 273.406 229.724 271.907C227.154 270.407 225.083 268.265 223.584 265.552C222.084 262.767 221.227 259.84 221.227 256.413C221.227 252.985 222.084 250.058 223.584 247.273C225.083 244.489 227.225 242.418 229.724 240.918C232.295 239.419 235.222 238.562 238.649 238.562C242.077 238.562 244.79 239.419 247.36 240.918C249.931 242.418 252.001 244.56 253.501 247.273C255 250.058 255.857 252.985 255.857 256.413C255.572 259.84 254.929 262.981 253.501 265.552Z" fill="#223344"/>
<path d="M207.376 216.427C207.376 214.499 205.876 213 203.949 213C202.021 213 200.521 214.499 200.521 216.427V241.489C198.594 238.705 196.094 236.634 192.881 235.134C189.883 233.635 186.527 232.778 182.671 232.778C178.387 232.778 174.388 233.849 170.961 235.991C167.534 238.133 164.606 240.847 162.679 244.488C160.537 248.13 159.68 252.128 159.68 256.626C159.68 261.125 160.751 265.123 162.893 268.765C165.035 272.406 167.748 275.334 171.39 277.261C175.031 279.403 179.029 280.474 183.528 280.474C187.955 280.474 192.025 279.403 195.666 277.261C199.308 275.119 202.021 272.406 204.163 268.765C206.305 265.123 207.376 261.125 207.376 256.626V216.427ZM198.665 265.552C197.165 268.336 195.023 270.407 192.524 271.906C190.025 273.406 187.026 274.262 183.813 274.262C180.6 274.262 177.673 273.406 174.888 271.906C172.318 270.407 170.247 268.265 168.748 265.552C167.248 262.767 166.391 259.839 166.391 256.412C166.391 252.985 167.248 250.057 168.748 247.273C170.247 244.488 172.389 242.417 174.888 240.918C177.459 239.419 180.386 238.562 183.813 238.562C187.026 238.562 189.954 239.419 192.524 240.918C195.095 242.417 197.165 244.559 198.665 247.273C200.164 250.057 201.021 252.985 201.021 256.412C200.736 259.839 200.164 262.767 198.665 265.552Z" fill="#223344"/>
<path d="M74.9278 207.587C75.1142 207.587 75.487 207.773 75.6734 207.773H108.044C109.721 207.773 111.026 206.468 111.026 204.791C111.026 203.113 109.721 201.809 108.044 201.809H88.0996H76.7917H76.0461C71.4484 201.622 67.5341 197.77 67.5341 192.924C67.5341 188.699 70.5164 185.157 74.555 184.225C75.1142 184.039 75.8597 184.039 76.4189 184.039C77.9101 184.039 79.4012 184.412 80.6439 185.157C80.0847 183.666 79.8983 181.989 79.8983 180.187C79.8983 179.628 79.8983 179.068 79.8983 178.696C80.6439 170.929 87.2919 164.654 95.4312 164.654C100.961 164.654 105.994 167.636 108.541 172.048C109.659 173.912 110.405 175.9 110.778 178.137C112.082 176.459 113.946 175.154 115.935 174.409C117.239 173.849 118.73 173.663 120.159 173.663C125.13 173.663 129.417 176.645 131.281 180.87C131.654 181.989 132.772 182.734 134.077 182.734C135.754 182.734 137.059 181.429 137.059 179.752C137.059 179.379 137.059 179.006 136.873 178.634C134.077 172.358 127.802 167.885 120.408 167.885C117.985 167.885 115.81 168.258 113.76 169.19C110.032 163.101 103.198 159 95.6176 159C84.496 159 75.3006 167.512 74.3686 178.385C67.3477 179.503 62.0044 185.406 62.0044 192.8C61.818 200.566 67.5341 206.655 74.9278 207.587Z" fill="#99AABB"/>
<path d="M147.437 186.897H117.49C115.813 186.897 114.508 188.202 114.508 189.88C114.508 191.557 115.813 192.862 117.49 192.862H147.437C149.115 192.862 150.42 191.557 150.42 189.88C150.42 188.14 149.115 186.897 147.437 186.897Z" fill="#88DD44"/>
<path d="M147.437 206.654H117.49C115.813 206.654 114.508 207.959 114.508 209.637C114.508 211.314 115.813 212.619 117.49 212.619H147.437C149.115 212.619 150.42 211.314 150.42 209.637C150.42 208.145 149.115 206.654 147.437 206.654Z" fill="#88DD44"/>
<path d="M147.437 196.838H117.49C115.813 196.838 114.508 198.143 114.508 199.82C114.508 201.498 115.813 202.802 117.49 202.802H147.437C149.115 202.802 150.42 201.498 150.42 199.82C150.42 198.143 149.115 196.838 147.437 196.838Z" fill="#88DD44"/>
<defs>
<filter id="filter0_d_1674_3375" x="1.99219" y="0" width="418.961" height="472.947" filterUnits="userSpaceOnUse" color-interpolation-filters="sRGB">
<feFlood flood-opacity="0" result="BackgroundImageFix"/>
<feColorMatrix in="SourceAlpha" type="matrix" values="0 0 0 0 0 0 0 0 0 0 0 0 0 0 0 0 0 0 127 0" result="hardAlpha"/>
<feMorphology radius="10" operator="erode" in="SourceAlpha" result="effect1_dropShadow_1674_3375"/>
<feOffset dx="10" dy="10"/>
<feGaussianBlur stdDeviation="22.5"/>
<feColorMatrix type="matrix" values="0 0 0 0 0.956863 0 0 0 0 0.509804 0 0 0 0 0 0 0 0 0.15 0"/>
<feBlend mode="normal" in2="BackgroundImageFix" result="effect1_dropShadow_1674_3375"/>
<feBlend mode="normal" in="SourceGraphic" in2="effect1_dropShadow_1674_3375" result="shape"/>
</filter>
</defs>
</svg>
