<svg width="80" height="80" viewBox="0 0 80 80" fill="none" xmlns="http://www.w3.org/2000/svg">
<path d="M73.641 59.4226L40 78.8453L6.35898 59.4226V20.5774L40 1.1547L73.641 20.5774V59.4226Z" stroke="#F48200" stroke-width="2"/>
<rect x="24.5312" y="26.5942" width="29.76" height="27.6343" rx="4" fill="#FBD4A8"/>
<path d="M49.4541 25H29.5459C26.4879 25 24 27.4879 24 30.5459V50.4542C24 53.5121 26.4879 56 29.5459 56H49.4542C52.5121 56 55 53.5121 55 50.4541V30.5459C55 27.4879 52.5121 25 49.4541 25ZM53.1836 50.4541C53.1836 52.5106 51.5106 54.1836 49.4541 54.1836H29.5459C27.4894 54.1836 25.8164 52.5106 25.8164 50.4541V30.5459C25.8164 28.4894 27.4894 26.8164 29.5459 26.8164H49.4542C51.5106 26.8164 53.1836 28.4894 53.1836 30.5459V50.4541Z" fill="#F48200"/>
<circle cx="33.8313" cy="32.8831" r="1.68286" fill="white"/>
<circle cx="45.3469" cy="40.5002" r="1.68286" fill="white"/>
<circle cx="37.55" cy="48.4719" r="1.68286" fill="white"/>
<path d="M50.2011 31.8101H36.3685C35.9882 30.6807 34.9198 29.8647 33.6637 29.8647C32.4076 29.8647 31.3393 30.6807 30.959 31.8101H28.7998C28.2982 31.8101 27.8916 32.2167 27.8916 32.7183C27.8916 33.2198 28.2982 33.6264 28.7998 33.6264H30.959C31.3393 34.7558 32.4077 35.5718 33.6638 35.5718C34.9199 35.5718 35.9882 34.7558 36.3685 33.6264H50.2011C50.7027 33.6264 51.1093 33.2198 51.1093 32.7183C51.1093 32.2167 50.7027 31.8101 50.2011 31.8101ZM33.6637 33.7555C33.0917 33.7555 32.6264 33.2902 32.6264 32.7183C32.6264 32.1463 33.0917 31.681 33.6637 31.681C34.2357 31.681 34.7011 32.1463 34.7011 32.7183C34.7011 33.2902 34.2357 33.7555 33.6637 33.7555Z" fill="url(#paint0_linear_2001_3340)"/>
<path d="M50.2011 39.5916H48.0418C47.6615 38.462 46.5931 37.646 45.3371 37.646C44.081 37.646 43.0127 38.462 42.6324 39.5916H28.7998C28.2982 39.5916 27.8916 39.9982 27.8916 40.4998C27.8916 41.0013 28.2982 41.408 28.7998 41.408H42.6324C43.0127 42.5375 44.0811 43.3535 45.3372 43.3535C46.5932 43.3535 47.6616 42.5375 48.0419 41.408H50.2011C50.7027 41.408 51.1093 41.0013 51.1093 40.4998C51.1093 39.9982 50.7027 39.5916 50.2011 39.5916ZM45.3372 41.5371C44.7652 41.5371 44.2998 41.0717 44.2998 40.4998C44.2998 39.9278 44.7652 39.4624 45.3372 39.4624C45.9091 39.4624 46.3745 39.9278 46.3745 40.4998C46.3745 41.0717 45.9091 41.5371 45.3372 41.5371Z" fill="url(#paint1_linear_2001_3340)"/>
<path d="M50.2011 47.3743H40.2596C39.8793 46.2448 38.811 45.4287 37.5549 45.4287C36.2988 45.4287 35.2304 46.2448 34.8501 47.3743H28.7998C28.2982 47.3743 27.8916 47.7809 27.8916 48.2825C27.8916 48.784 28.2982 49.1907 28.7998 49.1907H34.8501C35.2304 50.3202 36.2988 51.1362 37.5549 51.1362C38.811 51.1362 39.8793 50.3202 40.2596 49.1907H50.2011C50.7027 49.1907 51.1093 48.784 51.1093 48.2825C51.1093 47.7809 50.7027 47.3743 50.2011 47.3743ZM37.5549 49.3199C36.9829 49.3199 36.5175 48.8545 36.5175 48.2825C36.5175 47.7105 36.9829 47.2452 37.5549 47.2452C38.1269 47.2452 38.5922 47.7105 38.5922 48.2825C38.5922 48.8545 38.1269 49.3199 37.5549 49.3199Z" fill="url(#paint2_linear_2001_3340)"/>
<defs>
<linearGradient id="paint0_linear_2001_3340" x1="29.4356" y1="30.2165" x2="35.282" y2="42.4217" gradientUnits="userSpaceOnUse">
<stop stop-color="#F08F08"/>
<stop offset="0.0001" stop-color="#F08F08"/>
<stop offset="1" stop-color="#E66B00"/>
</linearGradient>
<linearGradient id="paint1_linear_2001_3340" x1="29.4356" y1="37.9978" x2="35.2828" y2="50.2036" gradientUnits="userSpaceOnUse">
<stop stop-color="#F08F08"/>
<stop offset="0.0001" stop-color="#F08F08"/>
<stop offset="1" stop-color="#E66B00"/>
</linearGradient>
<linearGradient id="paint2_linear_2001_3340" x1="29.4356" y1="45.7805" x2="35.2828" y2="57.9864" gradientUnits="userSpaceOnUse">
<stop stop-color="#F08F08"/>
<stop offset="0.0001" stop-color="#F08F08"/>
<stop offset="1" stop-color="#E66B00"/>
</linearGradient>
</defs>
</svg>
