<svg width="80" height="80" viewBox="0 0 80 80" fill="none" xmlns="http://www.w3.org/2000/svg">
<path d="M73.641 59.4226L40 78.8453L6.35898 59.4226V20.5774L40 1.1547L73.641 20.5774V59.4226Z" stroke="#F48200" stroke-width="2"/>
<circle cx="26.6402" cy="48.026" r="2.18418" fill="#FBD4A8"/>
<circle cx="39.0172" cy="52.3941" r="2.18418" fill="#FBD4A8"/>
<circle cx="52.1227" cy="48.026" r="2.18418" fill="#FBD4A8"/>
<path d="M24.4561 34.1923L28.4604 31.2801L29.5525 26.9117L33.5568 24.7275L39.0173 26.9117L44.1137 25.4556L47.754 28.3678L51.0303 31.2801L54.3065 34.9204L52.8504 40.0168L48.8461 42.565H28.4604L24.4561 39.2887V34.1923Z" fill="#FBD4A8"/>
<path d="M51.5934 44.7378C50.0213 44.7378 48.6931 45.7979 48.2834 47.2405H44.9613V43.5769H48.3533C52.0374 43.5769 55.0347 40.5796 55.0347 36.8955C55.0347 33.9416 53.0755 31.3466 50.2943 30.5015C49.4536 27.1351 46.4148 24.7207 42.8954 24.7207C41.5311 24.7207 40.2242 25.0725 39.0708 25.7446C37.8493 24.6276 36.2476 24 34.5648 24C30.955 24 28.0047 26.8776 27.887 30.4591C25.0301 31.2576 23 33.8734 23 36.8955C23 40.5796 25.9972 43.5769 29.6814 43.5769H33.0734V47.2405H29.7513C29.3417 45.7979 28.0134 44.7378 26.4412 44.7378C24.5437 44.7378 23 46.2815 23 48.179C23 50.0765 24.5437 51.6203 26.4412 51.6203C28.0134 51.6203 29.3416 50.5602 29.7513 49.1176H34.0119C34.5302 49.1176 34.9504 48.6973 34.9504 48.179V43.5769H38.0788V49.2487C36.6362 49.6583 35.5761 50.9866 35.5761 52.5588C35.5761 54.4563 37.1198 56 39.0173 56C40.9148 56 42.4586 54.4563 42.4586 52.5588C42.4586 50.9866 41.3985 49.6584 39.9558 49.2487V43.5769H43.0842V48.179C43.0842 48.6973 43.5044 49.1176 44.0228 49.1176H48.2834C48.693 50.5602 50.0213 51.6203 51.5934 51.6203C53.4909 51.6203 55.0347 50.0765 55.0347 48.179C55.0347 46.2815 53.4909 44.7378 51.5934 44.7378ZM26.4412 49.7432C25.5787 49.7432 24.877 49.0415 24.877 48.179C24.877 47.3165 25.5787 46.6148 26.4412 46.6148C27.3037 46.6148 28.0054 47.3165 28.0054 48.179C28.0054 49.0415 27.3037 49.7432 26.4412 49.7432ZM40.5815 52.5588C40.5815 53.4213 39.8798 54.123 39.0173 54.123C38.1548 54.123 37.4531 53.4213 37.4531 52.5588C37.4531 51.6963 38.1548 50.9946 39.0173 50.9946C39.8798 50.9946 40.5815 51.6963 40.5815 52.5588ZM29.6814 41.6998C27.0323 41.6998 24.877 39.5446 24.877 36.8955C24.877 34.5277 26.6419 32.4841 28.9821 32.1418C29.4759 32.0696 29.8268 31.6235 29.7808 31.1266C29.7672 30.98 29.7603 30.8302 29.7603 30.6814C29.7603 28.0323 31.9156 25.8771 34.5647 25.8771C35.9781 25.8771 37.311 26.4915 38.2215 27.5628C38.5411 27.9389 39.0974 28.0031 39.4944 27.7098C40.4787 26.9822 41.6548 26.5977 42.8953 26.5977C45.7502 26.5977 48.1243 28.6924 48.5681 31.4173C48.6309 31.8026 48.9256 32.1088 49.3082 32.1862C51.5387 32.6378 53.1576 34.6182 53.1576 36.8955C53.1576 39.5446 51.0023 41.6998 48.3532 41.6998H29.6814ZM51.5934 49.7432C50.7309 49.7432 50.0293 49.0415 50.0293 48.179C50.0293 47.3165 50.7309 46.6148 51.5934 46.6148C52.4559 46.6148 53.1576 47.3165 53.1576 48.179C53.1576 49.0415 52.4559 49.7432 51.5934 49.7432Z" fill="#F48200"/>
</svg>
