<svg width="80" height="80" viewBox="0 0 80 80" fill="none" xmlns="http://www.w3.org/2000/svg">
<path d="M73.641 59.4226L40 78.8453L6.35898 59.4226V20.5774L40 1.1547L73.641 20.5774V59.4226Z" stroke="#F48200" stroke-width="2"/>
<path d="M54 54.9668H23V56.0005H54V54.9668Z" fill="#F48200"/>
<rect x="25.2695" y="50.708" width="3.78054" height="3.02443" fill="#FBD4A8"/>
<rect x="31.3164" y="49.1953" width="3.78054" height="4.53664" fill="#FBD4A8"/>
<rect x="42.6602" y="42.3906" width="3.78054" height="11.3416" fill="#FBD4A8"/>
<rect x="47.9531" y="35.585" width="3.78054" height="18.1466" fill="#FBD4A8"/>
<rect x="36.6104" y="46.1709" width="3.78054" height="7.56107" fill="#FBD4A8"/>
<path d="M52.9131 29.4195L50.8464 25.2861C50.719 25.0308 50.4088 24.9271 50.1535 25.0545C50.1533 25.0545 50.1532 25.0546 50.1531 25.0547L46.0197 27.1213C45.7644 27.2489 45.6607 27.5594 45.7883 27.8147C45.9158 28.0701 46.2263 28.1737 46.4816 28.0462L49.4752 26.5504L48.6584 28.8827C45.068 39.108 35.8204 46.2817 25.0234 47.2172L25.1113 48.2505C36.315 47.2799 45.9106 39.8349 49.6343 29.2237L50.4682 26.8408L51.9883 29.8814C52.1158 30.1367 52.4263 30.2404 52.6816 30.1129C52.9371 29.9853 53.0407 29.6749 52.9131 29.4195Z" fill="#F48200"/>
<path d="M29.2007 49.7998H25.5841C25.2987 49.7998 25.0674 50.0311 25.0674 50.3165V53.4164C25.0674 53.7018 25.2987 53.9331 25.5841 53.9331H29.2007C29.4861 53.9331 29.7174 53.7018 29.7174 53.4164V50.3165C29.7174 50.0311 29.4861 49.7998 29.2007 49.7998ZM28.6841 52.8998H26.1007V50.8331H28.6841V52.8998Z" fill="#F48200"/>
<path d="M34.8833 48.2505H31.2667C30.9813 48.2505 30.75 48.4818 30.75 48.7672V53.4174C30.75 53.7027 30.9813 53.9341 31.2667 53.9341H34.8833C35.1687 53.9341 35.4 53.7027 35.4 53.4174V48.7672C35.4 48.4818 35.1687 48.2505 34.8833 48.2505ZM34.3667 52.9007H31.7833V49.2839H34.3667V52.9007Z" fill="#F48200"/>
<path d="M40.5659 45.6665H36.9493C36.664 45.6665 36.4326 45.8978 36.4326 46.1832V53.4164C36.4326 53.7018 36.664 53.9331 36.9493 53.9331H40.5659C40.8513 53.9331 41.0826 53.7018 41.0826 53.4164V46.1832C41.0826 45.8978 40.8513 45.6665 40.5659 45.6665ZM40.0493 52.8998H37.4659V46.6998H40.0493V52.8998Z" fill="#F48200"/>
<path d="M46.2505 42.0508H42.6339C42.3485 42.0508 42.1172 42.2821 42.1172 42.5674V53.4174C42.1172 53.7027 42.3485 53.9341 42.6339 53.9341H46.2505C46.5358 53.9341 46.7672 53.7027 46.7672 53.4174V42.5674C46.7672 42.2821 46.5358 42.0508 46.2505 42.0508ZM45.7338 52.9008H43.1505V43.0841H45.7338V52.9008Z" fill="#F48200"/>
<path d="M51.9331 34.8164H48.3165C48.0311 34.8164 47.7998 35.0477 47.7998 35.3331V53.4164C47.7998 53.7018 48.0311 53.9331 48.3165 53.9331H51.9331C52.2185 53.9331 52.4498 53.7018 52.4498 53.4164V35.3331C52.4498 35.0477 52.2185 34.8164 51.9331 34.8164ZM51.4165 52.8998H48.8331V35.8497H51.4165V52.8998Z" fill="#F48200"/>
</svg>
