<svg width="80" height="80" viewBox="0 0 80 80" fill="none" xmlns="http://www.w3.org/2000/svg">
<path d="M73.641 59.4226L40 78.8453L6.35898 59.4226V20.5774L40 1.1547L73.641 20.5774V59.4226Z" stroke="#F48200" stroke-width="2"/>
<rect x="25" y="28" width="30" height="25" fill="#FBD4A8"/>
<path d="M44.7312 34.9438L39.5 38.0438V44.2438L45.1187 47.5376L50.1562 43.8563V38.0438L44.7312 34.9438Z" fill="white"/>
<path d="M24 53.0352C24 53.3695 24.2711 53.6406 24.6055 53.6406H54.3945C54.7289 53.6406 55 53.3695 55 53.0352V27.6055C55 27.2711 54.7289 27 54.3945 27H24.6055C24.2711 27 24 27.2711 24 27.6055V53.0352ZM53.7891 28.2109V30.6328H36.7755C36.4411 30.6328 37.175 30.9039 37.175 31.2383C37.175 31.5726 36.4411 31.8438 36.7755 31.8438H53.7891V52.4297H25.2109V31.8438H36.7755C37.1098 31.8438 37.3809 31.5726 37.3809 31.2383C37.3809 30.9039 37.1098 30.6328 36.7755 30.6328H25.2109V28.2109H53.7891Z" fill="#F48200"/>
<path d="M39.2029 44.8845L44.6603 48.0351C44.7541 48.0892 44.8585 48.1162 44.9631 48.1162C45.068 48.1162 45.1731 48.089 45.267 48.0344L50.7023 44.8805C50.7034 44.8799 50.7042 44.8791 50.7053 44.8785C50.8832 44.774 51.0015 44.5798 51.0035 44.3628C51.0035 44.3608 51.0039 44.3588 51.0039 44.3568V38.0478C51.0039 37.8324 50.8895 37.6332 50.7034 37.5247L45.2541 34.3478C45.069 34.24 44.8331 34.2378 44.6443 34.3478L39.1951 37.5247C39.009 37.6332 38.8945 37.8324 38.8945 38.0478V44.3568C38.8945 44.5777 39.0188 44.7809 39.2029 44.8845ZM44.9624 46.8112L40.7109 44.3568L44.9624 41.902L49.1922 44.3568L44.9624 46.8112ZM49.7929 43.3055L45.5546 40.8457V35.9248L49.7929 38.3958V43.3055ZM44.3437 35.9248V40.8609L40.1054 43.3081V38.3956L44.3437 35.9248Z" fill="#F48200"/>
<path d="M30.418 37.293H34.0508C34.3851 37.293 34.6562 37.0218 34.6562 36.6875C34.6562 36.3532 34.3851 36.082 34.0508 36.082H30.418C30.0836 36.082 29.8125 36.3532 29.8125 36.6875C29.8125 37.0218 30.0836 37.293 30.418 37.293Z" fill="#F48200"/>
<path d="M35.8672 39.7148H28.6016C28.2672 39.7148 27.9961 39.986 27.9961 40.3203C27.9961 40.6547 28.2672 40.9258 28.6016 40.9258H35.8672C36.2015 40.9258 36.4727 40.6547 36.4727 40.3203C36.4727 39.986 36.2015 39.7148 35.8672 39.7148Z" fill="#F48200"/>
<path d="M35.8672 43.3472H28.6016C28.2672 43.3472 27.9961 43.6183 27.9961 43.9526C27.9961 44.287 28.2672 44.5581 28.6016 44.5581H35.8672C36.2015 44.5581 36.4727 44.287 36.4727 43.9526C36.4727 43.6183 36.2015 43.3472 35.8672 43.3472Z" fill="#F48200"/>
<path d="M35.8672 46.9805H28.6016C28.2672 46.9805 27.9961 47.2516 27.9961 47.5859C27.9961 47.9203 28.2672 48.1914 28.6016 48.1914H35.8672C36.2015 48.1914 36.4727 47.9203 36.4727 47.5859C36.4727 47.2516 36.2015 46.9805 35.8672 46.9805Z" fill="#F48200"/>
</svg>
