<svg width="64" height="64" viewBox="0 0 64 64" fill="none" xmlns="http://www.w3.org/2000/svg">
<path d="M58.7128 47.4226L32 62.8453L5.28719 47.4226V16.5774L32 1.1547L58.7128 16.5774V47.4226Z" stroke="#F48200" stroke-width="2"/>
<path d="M46 28L32 46L34.76 35.36L35.6267 32L36.6667 28H46Z" fill="#FBD4A8"/>
<path d="M32 46L18 28H27.3333L32 46Z" fill="#FBD4A8"/>
<path d="M27.3333 27.9998H18L22.6667 20.6665L27.3333 27.9998Z" fill="#FBEEDF"/>
<path d="M46 27.9998H36.6667L41.3334 20.6665L46 27.9998Z" fill="#FBEEDF"/>
<path d="M32 20.6665L27.3333 27.9998L22.6667 20.6665H32Z" fill="#FBD4A8"/>
<path d="M36.6667 28L35.6267 32L34.76 35.36L32 46L27.3333 28H36.6667Z" fill="#FBEEDF"/>
<path d="M34.6667 28L33.6267 32L32.76 35.36L31 42.144L32 46L34.76 35.36L35.6267 32L36.6667 28H34.6667Z" fill="#F0C390"/>
<path d="M36.6667 27.9998H27.3333L32 20.6665L36.6667 27.9998Z" fill="#FBEEDF"/>
<path d="M41.3333 20.6665L36.6667 27.9998L32 20.6665H41.3333Z" fill="#FBD4A8"/>
<path d="M33 44.7138L20 27.9998L24.6667 20.6665H22.6667L18 27.9998L32 45.9998L33 44.7138Z" fill="white"/>
<path d="M19.5458 31.0684L20.5978 30.2497L23.8725 34.4577L22.8205 35.2764L19.5458 31.0684Z" fill="white"/>
<path d="M21.302 32.2455C21.0886 32.4107 20.9958 32.6883 21.0671 32.9487C21.1383 33.209 21.3595 33.4007 21.6274 33.4342C21.8952 33.4676 22.1568 33.3363 22.29 33.1015C22.4231 32.8667 22.4016 32.5748 22.2353 32.3621C22.0094 32.073 21.5922 32.0208 21.302 32.2455Z" fill="#F48200"/>
<path d="M12.6667 32.6668H14.6667C15.0348 32.6668 15.3333 32.3684 15.3333 32.0002C15.3333 31.632 15.0348 31.3335 14.6667 31.3335H12.6667C12.2985 31.3335 12 31.632 12 32.0002C12 32.3684 12.2985 32.6668 12.6667 32.6668Z" fill="#F48200"/>
<path d="M49.3333 32.6668H51.3333C51.7015 32.6668 52 32.3684 52 32.0002C52 31.632 51.7015 31.3335 51.3333 31.3335H49.3333C48.9651 31.3335 48.6667 31.632 48.6667 32.0002C48.6667 32.3684 48.9651 32.6668 49.3333 32.6668Z" fill="#F48200"/>
<path d="M32.6666 51.3332V49.3332C32.6666 48.965 32.3682 48.6665 32 48.6665C31.6318 48.6665 31.3333 48.965 31.3333 49.3332V51.3332C31.3333 51.7014 31.6318 51.9998 32 51.9998C32.3682 51.9998 32.6666 51.7014 32.6666 51.3332Z" fill="#F48200"/>
<path d="M32 15.3333C32.3682 15.3333 32.6666 15.0349 32.6666 14.6667V12.6667C32.6666 12.2985 32.3682 12 32 12C31.6318 12 31.3333 12.2985 31.3333 12.6667V14.6667C31.3333 15.0349 31.6318 15.3333 32 15.3333Z" fill="#F48200"/>
<path d="M19.272 43.7853L17.858 45.2C17.6779 45.3657 17.6031 45.6168 17.6632 45.8541C17.7233 46.0914 17.9085 46.2767 18.1458 46.3367C18.3831 46.3968 18.6342 46.322 18.8 46.142L20.214 44.728C20.4666 44.4664 20.463 44.0506 20.2059 43.7934C19.9487 43.5363 19.5329 43.5326 19.2713 43.7853H19.272Z" fill="#F48200"/>
<path d="M44.2567 20.4098C44.4335 20.4098 44.603 20.3395 44.728 20.2145L46.142 18.7998C46.3221 18.634 46.3969 18.3829 46.3368 18.1456C46.2767 17.9083 46.0914 17.7231 45.8542 17.663C45.6169 17.6029 45.3658 17.6777 45.2 17.8578L43.786 19.2718C43.5954 19.4625 43.5384 19.7491 43.6415 19.9982C43.7447 20.2473 43.9877 20.4097 44.2573 20.4098H44.2567Z" fill="#F48200"/>
<path d="M45.6707 46.3373C45.9403 46.3372 46.1833 46.1748 46.2865 45.9257C46.3896 45.6766 46.3326 45.3899 46.142 45.1993L44.728 43.7853C44.4664 43.5326 44.0506 43.5363 43.7935 43.7934C43.5363 44.0506 43.5327 44.4664 43.7853 44.728L45.2 46.142C45.3248 46.2668 45.4941 46.3371 45.6707 46.3373Z" fill="#F48200"/>
<path d="M19.272 20.2145C19.5336 20.4671 19.9494 20.4635 20.2065 20.2063C20.4637 19.9492 20.4673 19.5334 20.2147 19.2718L18.8 17.8578C18.6342 17.6777 18.3831 17.6029 18.1458 17.663C17.9085 17.7231 17.7233 17.9083 17.6632 18.1456C17.6031 18.3829 17.6779 18.634 17.858 18.7998L19.272 20.2145Z" fill="#F48200"/>
<path d="M19.548 31.076C19.6922 31.2699 19.9301 31.3707 20.1697 31.3392C20.4093 31.3078 20.6131 31.1492 20.7025 30.9246C20.7918 30.7001 20.7526 30.4447 20.6 30.2573L19.3633 28.6667H26.818L30.5447 43.0433L23.878 34.4673C23.7318 34.2793 23.4963 34.1836 23.2603 34.2162C23.0244 34.2488 22.8237 34.4048 22.734 34.6255C22.6443 34.8462 22.6791 35.098 22.8253 35.286L31.474 46.4093L31.4787 46.4053C31.6026 46.5691 31.7959 46.6657 32.0013 46.6665C32.2068 46.6673 32.4008 46.5722 32.526 46.4093L46.526 28.4093C46.6823 28.2084 46.7104 27.936 46.5987 27.7073C46.5863 27.6858 46.5725 27.6651 46.5573 27.6453H46.5627L41.896 20.312C41.7705 20.1252 41.5583 20.0154 41.3333 20.0207V20H22.6667V20.0207C22.4423 20.0146 22.2303 20.1232 22.104 20.3087L17.4373 27.642H17.4427C17.4275 27.6617 17.4137 27.6824 17.4013 27.704C17.2895 27.9327 17.3177 28.2051 17.474 28.406L19.548 31.076ZM33.2147 21.3333H40.1187L36.6667 26.758L33.2147 21.3333ZM35.452 27.3333H28.548L32 21.9087L35.452 27.3333ZM27.3333 26.758L23.8813 21.3333H30.7853L27.3333 26.758ZM33.4553 43.0427L35.4053 35.5253C35.4754 35.2914 35.4119 35.0378 35.2398 34.8645C35.0678 34.6912 34.8147 34.6258 34.5803 34.6941C34.3458 34.7624 34.1674 34.9534 34.1153 35.192L32 43.344L28.1947 28.6667H35.8047L34.982 31.8327C34.912 32.0666 34.9755 32.3202 35.1475 32.4935C35.3195 32.6668 35.5726 32.7322 35.8071 32.6639C36.0416 32.5956 36.2199 32.4046 36.272 32.166L37.182 28.6667H44.6367L33.4553 43.0427ZM44.7853 27.3333H37.8813L41.3333 21.9087L44.7853 27.3333ZM22.6667 21.9087L26.1187 27.3333H19.2147L22.6667 21.9087Z" fill="#F48200"/>
</svg>
