<svg width="56" height="64" viewBox="0 0 56 64" fill="none" xmlns="http://www.w3.org/2000/svg">
<path d="M54.2871 47.4249L27.7871 62.8431L1.28711 47.4249V16.5751L27.7871 1.15694L54.2871 16.5751V47.4249Z" stroke="#F48200" stroke-width="2"/>
<path d="M37.3947 37.5H33.3947H32.3947V43.5H38.3947V37.5H37.3947Z" fill="#FBD4A8"/>
<path d="M36.3947 25.5H38.3947V19.5H15.3947V25.5H36.3947ZM26.3947 21.5C26.5925 21.5 26.7858 21.5586 26.9503 21.6685C27.1147 21.7784 27.2429 21.9346 27.3186 22.1173C27.3943 22.3 27.4141 22.5011 27.3755 22.6951C27.3369 22.8891 27.2417 23.0673 27.1018 23.2071C26.962 23.347 26.7838 23.4422 26.5898 23.4808C26.3958 23.5194 26.1948 23.4996 26.012 23.4239C25.8293 23.3482 25.6731 23.22 25.5632 23.0556C25.4534 22.8911 25.3947 22.6978 25.3947 22.5C25.3955 22.235 25.5011 21.9811 25.6885 21.7938C25.8758 21.6064 26.1297 21.5008 26.3947 21.5ZM22.3947 21.5C22.5925 21.5 22.7858 21.5586 22.9503 21.6685C23.1147 21.7784 23.2429 21.9346 23.3186 22.1173C23.3943 22.3 23.4141 22.5011 23.3755 22.6951C23.3369 22.8891 23.2417 23.0673 23.1018 23.2071C22.962 23.347 22.7838 23.4422 22.5898 23.4808C22.3958 23.5194 22.1948 23.4996 22.012 23.4239C21.8293 23.3482 21.6731 23.22 21.5632 23.0556C21.4534 22.8911 21.3947 22.6978 21.3947 22.5C21.3955 22.235 21.5011 21.9811 21.6885 21.7938C21.8758 21.6064 22.1297 21.5008 22.3947 21.5ZM18.3947 21.5C18.5925 21.5 18.7858 21.5586 18.9503 21.6685C19.1147 21.7784 19.2429 21.9346 19.3186 22.1173C19.3943 22.3 19.4141 22.5011 19.3755 22.6951C19.3369 22.8891 19.2417 23.0673 19.1018 23.2071C18.962 23.347 18.7838 23.4422 18.5898 23.4808C18.3958 23.5194 18.1948 23.4996 18.012 23.4239C17.8293 23.3482 17.6731 23.22 17.5632 23.0556C17.4534 22.8911 17.3947 22.6978 17.3947 22.5C17.3955 22.235 17.5011 21.9811 17.6885 21.7938C17.8758 21.6064 18.1297 21.5008 18.3947 21.5Z" fill="#FBD4A8"/>
<path d="M26.3947 39.5C26.3932 38.1118 26.7151 36.7423 27.3347 35.5H15.3947V41.5H26.6247C26.4696 40.8447 26.3924 40.1734 26.3947 39.5ZM18.3947 39.5C18.1969 39.5 18.0036 39.4414 17.8391 39.3315C17.6747 39.2216 17.5465 39.0654 17.4708 38.8827C17.3951 38.7 17.3753 38.4989 17.4139 38.3049C17.4525 38.1109 17.5478 37.9327 17.6876 37.7929C17.8275 37.653 18.0056 37.5578 18.1996 37.5192C18.3936 37.4806 18.5947 37.5004 18.7774 37.5761C18.9601 37.6518 19.1163 37.78 19.2262 37.9444C19.3361 38.1089 19.3947 38.3022 19.3947 38.5C19.3939 38.765 19.2883 39.0189 19.1009 39.2062C18.9136 39.3936 18.6597 39.4992 18.3947 39.5ZM22.3947 39.5C22.1969 39.5 22.0036 39.4414 21.8391 39.3315C21.6747 39.2216 21.5465 39.0654 21.4708 38.8827C21.3951 38.7 21.3753 38.4989 21.4139 38.3049C21.4525 38.1109 21.5478 37.9327 21.6876 37.7929C21.8275 37.653 22.0056 37.5578 22.1996 37.5192C22.3936 37.4806 22.5947 37.5004 22.7774 37.5761C22.9601 37.6518 23.1163 37.78 23.2262 37.9444C23.3361 38.1089 23.3947 38.3022 23.3947 38.5C23.3939 38.765 23.2883 39.0189 23.1009 39.2062C22.9136 39.3936 22.6597 39.4992 22.3947 39.5Z" fill="#FBD4A8"/>
<path d="M26.3947 31.5C26.947 31.5 27.3947 31.0523 27.3947 30.5C27.3947 29.9477 26.947 29.5 26.3947 29.5C25.8424 29.5 25.3947 29.9477 25.3947 30.5C25.3947 31.0523 25.8424 31.5 26.3947 31.5Z" fill="#FBD4A8"/>
<path d="M22.3947 31.5C22.947 31.5 23.3947 31.0523 23.3947 30.5C23.3947 29.9477 22.947 29.5 22.3947 29.5C21.8424 29.5 21.3947 29.9477 21.3947 30.5C21.3947 31.0523 21.8424 31.5 22.3947 31.5Z" fill="#FBD4A8"/>
<path d="M18.3947 31.5C18.947 31.5 19.3947 31.0523 19.3947 30.5C19.3947 29.9477 18.947 29.5 18.3947 29.5C17.8424 29.5 17.3947 29.9477 17.3947 30.5C17.3947 31.0523 17.8424 31.5 18.3947 31.5Z" fill="#FBD4A8"/>
<path d="M38.8947 30.6765V27.5C38.8947 27.3674 38.842 27.2402 38.7483 27.1464C38.6545 27.0527 38.5273 27 38.3947 27H36.8947V26H38.3947C38.5273 26 38.6545 25.9473 38.7483 25.8536C38.842 25.7598 38.8947 25.6326 38.8947 25.5V19.5C38.8947 19.3674 38.842 19.2402 38.7483 19.1464C38.6545 19.0527 38.5273 19 38.3947 19H15.3947C15.2621 19 15.1349 19.0527 15.0412 19.1464C14.9474 19.2402 14.8947 19.3674 14.8947 19.5V25.5C14.8947 25.6326 14.9474 25.7598 15.0412 25.8536C15.1349 25.9473 15.2621 26 15.3947 26H16.8947V27H15.3947C15.2621 27 15.1349 27.0527 15.0412 27.1464C14.9474 27.2402 14.8947 27.3674 14.8947 27.5V33.5C14.8947 33.6326 14.9474 33.7598 15.0412 33.8536C15.1349 33.9473 15.2621 34 15.3947 34H16.8947V35H15.3947C15.2621 35 15.1349 35.0527 15.0412 35.1464C14.9474 35.2402 14.8947 35.3674 14.8947 35.5V41.5C14.8947 41.6326 14.9474 41.7598 15.0412 41.8536C15.1349 41.9473 15.2621 42 15.3947 42H26.2397C26.6651 43.5618 27.4828 44.9888 28.615 46.1456C29.7472 47.3024 31.1563 48.1506 32.7086 48.6095C34.2608 49.0684 35.9046 49.1229 37.4838 48.7677C39.063 48.4125 40.5252 47.6595 41.7315 46.5801C42.9378 45.5008 43.8481 44.131 44.3759 42.6008C44.9037 41.0706 45.0316 39.4309 44.7474 37.8374C44.4632 36.2438 43.7762 34.7495 42.7519 33.4961C41.7275 32.2428 40.3998 31.2722 38.8947 30.6765ZM15.8947 20H37.8947V25H15.8947V20ZM17.8947 26H35.8947V27H17.8947V26ZM15.8947 28H37.8947V30.345C36.2337 29.882 34.4774 29.8848 32.8179 30.3531C31.1584 30.8213 29.6597 31.737 28.4857 33H15.8947V28ZM17.8947 34H27.6632C27.4318 34.3197 27.2207 34.6537 27.0312 35H17.8947V34ZM15.8947 41V36H26.5712C25.9269 37.5832 25.7378 39.315 26.0252 41H15.8947ZM35.3947 48C33.7136 48 32.0702 47.5015 30.6724 46.5675C29.2745 45.6335 28.1851 44.306 27.5417 42.7528C26.8984 41.1996 26.7301 39.4906 27.058 37.8417C27.386 36.1929 28.1956 34.6783 29.3843 33.4896C30.5731 32.3008 32.0876 31.4913 33.7364 31.1633C35.3853 30.8354 37.0944 31.0037 38.6475 31.647C40.2007 32.2904 41.5282 33.3798 42.4622 34.7777C43.3962 36.1755 43.8947 37.8189 43.8947 39.5C43.8922 41.7536 42.9959 43.9141 41.4023 45.5076C39.8088 47.1011 37.6483 47.9975 35.3947 48Z" fill="#F48200"/>
<path d="M35.3947 46C33.6714 45.998 32.0193 45.3126 30.8007 44.094C29.5822 42.8754 28.8967 41.2233 28.8947 39.5C28.8947 39.3674 28.842 39.2402 28.7483 39.1464C28.6545 39.0527 28.5273 39 28.3947 39C28.2621 39 28.1349 39.0527 28.0412 39.1464C27.9474 39.2402 27.8947 39.3674 27.8947 39.5C27.897 41.4884 28.6879 43.3948 30.0939 44.8008C31.4999 46.2069 33.4063 46.9978 35.3947 47C35.5273 47 35.6545 46.9473 35.7483 46.8536C35.842 46.7598 35.8947 46.6326 35.8947 46.5C35.8947 46.3674 35.842 46.2402 35.7483 46.1464C35.6545 46.0527 35.5273 46 35.3947 46Z" fill="#F48200"/>
<path d="M35.3947 32C35.2621 32 35.1349 32.0527 35.0412 32.1464C34.9474 32.2402 34.8947 32.3674 34.8947 32.5C34.8947 32.6326 34.9474 32.7598 35.0412 32.8536C35.1349 32.9473 35.2621 33 35.3947 33C37.118 33.002 38.7702 33.6874 39.9887 34.906C41.2073 36.1246 41.8927 37.7767 41.8947 39.5C41.8947 39.6326 41.9474 39.7598 42.0412 39.8536C42.1349 39.9473 42.2621 40 42.3947 40C42.5273 40 42.6545 39.9473 42.7483 39.8536C42.842 39.7598 42.8947 39.6326 42.8947 39.5C42.8925 37.5116 42.1016 35.6052 40.6955 34.1992C39.2895 32.7931 37.3831 32.0022 35.3947 32Z" fill="#F48200"/>
<path d="M18.3947 21C18.098 21 17.808 21.088 17.5614 21.2528C17.3147 21.4176 17.1224 21.6519 17.0089 21.926C16.8954 22.2001 16.8657 22.5017 16.9235 22.7926C16.9814 23.0836 17.1243 23.3509 17.3341 23.5607C17.5438 23.7704 17.8111 23.9133 18.1021 23.9712C18.3931 24.0291 18.6947 23.9993 18.9687 23.8858C19.2428 23.7723 19.4771 23.58 19.6419 23.3334C19.8067 23.0867 19.8947 22.7967 19.8947 22.5C19.8947 22.1022 19.7367 21.7206 19.4554 21.4393C19.1741 21.158 18.7925 21 18.3947 21ZM18.3947 23C18.2958 23 18.1992 22.9707 18.1169 22.9157C18.0347 22.8608 17.9706 22.7827 17.9328 22.6913C17.8949 22.6 17.885 22.4994 17.9043 22.4025C17.9236 22.3055 17.9712 22.2164 18.0412 22.1464C18.1111 22.0765 18.2002 22.0289 18.2972 22.0096C18.3942 21.9903 18.4947 22.0002 18.5861 22.0381C18.6774 22.0759 18.7555 22.14 18.8104 22.2222C18.8654 22.3044 18.8947 22.4011 18.8947 22.5C18.8947 22.6326 18.842 22.7598 18.7483 22.8536C18.6545 22.9473 18.5273 23 18.3947 23Z" fill="#F48200"/>
<path d="M22.3947 21C22.098 21 21.808 21.088 21.5614 21.2528C21.3147 21.4176 21.1224 21.6519 21.0089 21.926C20.8954 22.2001 20.8657 22.5017 20.9235 22.7926C20.9814 23.0836 21.1243 23.3509 21.3341 23.5607C21.5438 23.7704 21.8111 23.9133 22.1021 23.9712C22.393 24.0291 22.6946 23.9993 22.9687 23.8858C23.2428 23.7723 23.4771 23.58 23.6419 23.3334C23.8067 23.0867 23.8947 22.7967 23.8947 22.5C23.8947 22.1022 23.7367 21.7206 23.4554 21.4393C23.1741 21.158 22.7925 21 22.3947 21ZM22.3947 23C22.2958 23 22.1992 22.9707 22.1169 22.9157C22.0347 22.8608 21.9706 22.7827 21.9328 22.6913C21.8949 22.6 21.885 22.4994 21.9043 22.4025C21.9236 22.3055 21.9712 22.2164 22.0412 22.1464C22.1111 22.0765 22.2002 22.0289 22.2972 22.0096C22.3942 21.9903 22.4947 22.0002 22.5861 22.0381C22.6774 22.0759 22.7555 22.14 22.8104 22.2222C22.8654 22.3044 22.8947 22.4011 22.8947 22.5C22.8947 22.6326 22.842 22.7598 22.7483 22.8536C22.6545 22.9473 22.5273 23 22.3947 23Z" fill="#F48200"/>
<path d="M26.3947 21C26.098 21 25.808 21.088 25.5614 21.2528C25.3147 21.4176 25.1224 21.6519 25.0089 21.926C24.8954 22.2001 24.8657 22.5017 24.9235 22.7926C24.9814 23.0836 25.1243 23.3509 25.3341 23.5607C25.5438 23.7704 25.8111 23.9133 26.1021 23.9712C26.393 24.0291 26.6946 23.9993 26.9687 23.8858C27.2428 23.7723 27.4771 23.58 27.6419 23.3334C27.8067 23.0867 27.8947 22.7967 27.8947 22.5C27.8947 22.1022 27.7367 21.7206 27.4554 21.4393C27.1741 21.158 26.7925 21 26.3947 21ZM26.3947 23C26.2958 23 26.1992 22.9707 26.1169 22.9157C26.0347 22.8608 25.9706 22.7827 25.9328 22.6913C25.8949 22.6 25.885 22.4994 25.9043 22.4025C25.9236 22.3055 25.9712 22.2164 26.0412 22.1464C26.1111 22.0765 26.2002 22.0289 26.2972 22.0096C26.3942 21.9903 26.4947 22.0002 26.5861 22.0381C26.6774 22.0759 26.7555 22.14 26.8104 22.2222C26.8654 22.3044 26.8947 22.4011 26.8947 22.5C26.8947 22.6326 26.842 22.7598 26.7483 22.8536C26.6545 22.9473 26.5273 23 26.3947 23Z" fill="#F48200"/>
<path d="M30.3947 21H29.3947C29.2621 21 29.1349 21.0527 29.0412 21.1464C28.9474 21.2402 28.8947 21.3674 28.8947 21.5C28.8947 21.6326 28.9474 21.7598 29.0412 21.8536C29.1349 21.9473 29.2621 22 29.3947 22H30.3947C30.5273 22 30.6545 21.9473 30.7483 21.8536C30.842 21.7598 30.8947 21.6326 30.8947 21.5C30.8947 21.3674 30.842 21.2402 30.7483 21.1464C30.6545 21.0527 30.5273 21 30.3947 21Z" fill="#F48200"/>
<path d="M30.3947 23H29.3947C29.2621 23 29.1349 23.0527 29.0412 23.1464C28.9474 23.2402 28.8947 23.3674 28.8947 23.5C28.8947 23.6326 28.9474 23.7598 29.0412 23.8536C29.1349 23.9473 29.2621 24 29.3947 24H30.3947C30.5273 24 30.6545 23.9473 30.7483 23.8536C30.842 23.7598 30.8947 23.6326 30.8947 23.5C30.8947 23.3674 30.842 23.2402 30.7483 23.1464C30.6545 23.0527 30.5273 23 30.3947 23Z" fill="#F48200"/>
<path d="M33.3947 21H32.3947C32.2621 21 32.1349 21.0527 32.0412 21.1464C31.9474 21.2402 31.8947 21.3674 31.8947 21.5C31.8947 21.6326 31.9474 21.7598 32.0412 21.8536C32.1349 21.9473 32.2621 22 32.3947 22H33.3947C33.5273 22 33.6545 21.9473 33.7483 21.8536C33.842 21.7598 33.8947 21.6326 33.8947 21.5C33.8947 21.3674 33.842 21.2402 33.7483 21.1464C33.6545 21.0527 33.5273 21 33.3947 21Z" fill="#F48200"/>
<path d="M33.3947 23H32.3947C32.2621 23 32.1349 23.0527 32.0412 23.1464C31.9474 23.2402 31.8947 23.3674 31.8947 23.5C31.8947 23.6326 31.9474 23.7598 32.0412 23.8536C32.1349 23.9473 32.2621 24 32.3947 24H33.3947C33.5273 24 33.6545 23.9473 33.7483 23.8536C33.842 23.7598 33.8947 23.6326 33.8947 23.5C33.8947 23.3674 33.842 23.2402 33.7483 23.1464C33.6545 23.0527 33.5273 23 33.3947 23Z" fill="#F48200"/>
<path d="M36.3947 21H35.3947C35.2621 21 35.1349 21.0527 35.0412 21.1464C34.9474 21.2402 34.8947 21.3674 34.8947 21.5C34.8947 21.6326 34.9474 21.7598 35.0412 21.8536C35.1349 21.9473 35.2621 22 35.3947 22H36.3947C36.5273 22 36.6545 21.9473 36.7483 21.8536C36.842 21.7598 36.8947 21.6326 36.8947 21.5C36.8947 21.3674 36.842 21.2402 36.7483 21.1464C36.6545 21.0527 36.5273 21 36.3947 21Z" fill="#F48200"/>
<path d="M36.3947 23H35.3947C35.2621 23 35.1349 23.0527 35.0412 23.1464C34.9474 23.2402 34.8947 23.3674 34.8947 23.5C34.8947 23.6326 34.9474 23.7598 35.0412 23.8536C35.1349 23.9473 35.2621 24 35.3947 24H36.3947C36.5273 24 36.6545 23.9473 36.7483 23.8536C36.842 23.7598 36.8947 23.6326 36.8947 23.5C36.8947 23.3674 36.842 23.2402 36.7483 23.1464C36.6545 23.0527 36.5273 23 36.3947 23Z" fill="#F48200"/>
<path d="M18.3947 29C18.098 29 17.808 29.088 17.5614 29.2528C17.3147 29.4176 17.1224 29.6519 17.0089 29.926C16.8954 30.2001 16.8657 30.5017 16.9235 30.7926C16.9814 31.0836 17.1243 31.3509 17.3341 31.5607C17.5438 31.7704 17.8111 31.9133 18.1021 31.9712C18.3931 32.0291 18.6947 31.9993 18.9687 31.8858C19.2428 31.7723 19.4771 31.58 19.6419 31.3334C19.8067 31.0867 19.8947 30.7967 19.8947 30.5C19.8947 30.1022 19.7367 29.7206 19.4554 29.4393C19.1741 29.158 18.7925 29 18.3947 29ZM18.3947 31C18.2958 31 18.1992 30.9707 18.1169 30.9157C18.0347 30.8608 17.9706 30.7827 17.9328 30.6913C17.8949 30.6 17.885 30.4994 17.9043 30.4025C17.9236 30.3055 17.9712 30.2164 18.0412 30.1464C18.1111 30.0765 18.2002 30.0289 18.2972 30.0096C18.3942 29.9903 18.4947 30.0002 18.5861 30.0381C18.6774 30.0759 18.7555 30.14 18.8104 30.2222C18.8654 30.3044 18.8947 30.4011 18.8947 30.5C18.8947 30.6326 18.842 30.7598 18.7483 30.8536C18.6545 30.9473 18.5273 31 18.3947 31Z" fill="#F48200"/>
<path d="M22.3947 29C22.098 29 21.808 29.088 21.5614 29.2528C21.3147 29.4176 21.1224 29.6519 21.0089 29.926C20.8954 30.2001 20.8657 30.5017 20.9235 30.7926C20.9814 31.0836 21.1243 31.3509 21.3341 31.5607C21.5438 31.7704 21.8111 31.9133 22.1021 31.9712C22.393 32.0291 22.6946 31.9993 22.9687 31.8858C23.2428 31.7723 23.4771 31.58 23.6419 31.3334C23.8067 31.0867 23.8947 30.7967 23.8947 30.5C23.8947 30.1022 23.7367 29.7206 23.4554 29.4393C23.1741 29.158 22.7925 29 22.3947 29ZM22.3947 31C22.2958 31 22.1992 30.9707 22.1169 30.9157C22.0347 30.8608 21.9706 30.7827 21.9328 30.6913C21.8949 30.6 21.885 30.4994 21.9043 30.4025C21.9236 30.3055 21.9712 30.2164 22.0412 30.1464C22.1111 30.0765 22.2002 30.0289 22.2972 30.0096C22.3942 29.9903 22.4947 30.0002 22.5861 30.0381C22.6774 30.0759 22.7555 30.14 22.8104 30.2222C22.8654 30.3044 22.8947 30.4011 22.8947 30.5C22.8947 30.6326 22.842 30.7598 22.7483 30.8536C22.6545 30.9473 22.5273 31 22.3947 31Z" fill="#F48200"/>
<path d="M26.3947 29C26.098 29 25.808 29.088 25.5614 29.2528C25.3147 29.4176 25.1224 29.6519 25.0089 29.926C24.8954 30.2001 24.8657 30.5017 24.9235 30.7926C24.9814 31.0836 25.1243 31.3509 25.3341 31.5607C25.5438 31.7704 25.8111 31.9133 26.1021 31.9712C26.393 32.0291 26.6946 31.9993 26.9687 31.8858C27.2428 31.7723 27.4771 31.58 27.6419 31.3334C27.8067 31.0867 27.8947 30.7967 27.8947 30.5C27.8947 30.1022 27.7367 29.7206 27.4554 29.4393C27.1741 29.158 26.7925 29 26.3947 29ZM26.3947 31C26.2958 31 26.1992 30.9707 26.1169 30.9157C26.0347 30.8608 25.9706 30.7827 25.9328 30.6913C25.8949 30.6 25.885 30.4994 25.9043 30.4025C25.9236 30.3055 25.9712 30.2164 26.0412 30.1464C26.1111 30.0765 26.2002 30.0289 26.2972 30.0096C26.3942 29.9903 26.4947 30.0002 26.5861 30.0381C26.6774 30.0759 26.7555 30.14 26.8104 30.2222C26.8654 30.3044 26.8947 30.4011 26.8947 30.5C26.8947 30.6326 26.842 30.7598 26.7483 30.8536C26.6545 30.9473 26.5273 31 26.3947 31Z" fill="#F48200"/>
<path d="M29.3947 30H30.3947C30.5273 30 30.6545 29.9473 30.7483 29.8536C30.842 29.7598 30.8947 29.6326 30.8947 29.5C30.8947 29.3674 30.842 29.2402 30.7483 29.1464C30.6545 29.0527 30.5273 29 30.3947 29H29.3947C29.2621 29 29.1349 29.0527 29.0412 29.1464C28.9474 29.2402 28.8947 29.3674 28.8947 29.5C28.8947 29.6326 28.9474 29.7598 29.0412 29.8536C29.1349 29.9473 29.2621 30 29.3947 30Z" fill="#F48200"/>
<path d="M32.3947 30H33.3947C33.5273 30 33.6545 29.9473 33.7483 29.8536C33.842 29.7598 33.8947 29.6326 33.8947 29.5C33.8947 29.3674 33.842 29.2402 33.7483 29.1464C33.6545 29.0527 33.5273 29 33.3947 29H32.3947C32.2621 29 32.1349 29.0527 32.0412 29.1464C31.9474 29.2402 31.8947 29.3674 31.8947 29.5C31.8947 29.6326 31.9474 29.7598 32.0412 29.8536C32.1349 29.9473 32.2621 30 32.3947 30Z" fill="#F48200"/>
<path d="M18.3947 37C18.098 37 17.808 37.088 17.5614 37.2528C17.3147 37.4176 17.1224 37.6519 17.0089 37.926C16.8954 38.2001 16.8657 38.5017 16.9235 38.7926C16.9814 39.0836 17.1243 39.3509 17.3341 39.5607C17.5438 39.7704 17.8111 39.9133 18.1021 39.9712C18.3931 40.0291 18.6947 39.9994 18.9687 39.8858C19.2428 39.7723 19.4771 39.58 19.6419 39.3334C19.8067 39.0867 19.8947 38.7967 19.8947 38.5C19.8947 38.1022 19.7367 37.7206 19.4554 37.4393C19.1741 37.158 18.7925 37 18.3947 37ZM18.3947 39C18.2958 39 18.1992 38.9707 18.1169 38.9157C18.0347 38.8608 17.9706 38.7827 17.9328 38.6913C17.8949 38.6 17.885 38.4994 17.9043 38.4025C17.9236 38.3055 17.9712 38.2164 18.0412 38.1464C18.1111 38.0765 18.2002 38.0289 18.2972 38.0096C18.3942 37.9903 18.4947 38.0002 18.5861 38.0381C18.6774 38.0759 18.7555 38.14 18.8104 38.2222C18.8654 38.3044 18.8947 38.4011 18.8947 38.5C18.8947 38.6326 18.842 38.7598 18.7483 38.8536C18.6545 38.9473 18.5273 39 18.3947 39Z" fill="#F48200"/>
<path d="M22.3947 37C22.098 37 21.808 37.088 21.5614 37.2528C21.3147 37.4176 21.1224 37.6519 21.0089 37.926C20.8954 38.2001 20.8657 38.5017 20.9235 38.7926C20.9814 39.0836 21.1243 39.3509 21.3341 39.5607C21.5438 39.7704 21.8111 39.9133 22.1021 39.9712C22.393 40.0291 22.6946 39.9994 22.9687 39.8858C23.2428 39.7723 23.4771 39.58 23.6419 39.3334C23.8067 39.0867 23.8947 38.7967 23.8947 38.5C23.8947 38.1022 23.7367 37.7206 23.4554 37.4393C23.1741 37.158 22.7925 37 22.3947 37ZM22.3947 39C22.2958 39 22.1992 38.9707 22.1169 38.9157C22.0347 38.8608 21.9706 38.7827 21.9328 38.6913C21.8949 38.6 21.885 38.4994 21.9043 38.4025C21.9236 38.3055 21.9712 38.2164 22.0412 38.1464C22.1111 38.0765 22.2002 38.0289 22.2972 38.0096C22.3942 37.9903 22.4947 38.0002 22.5861 38.0381C22.6774 38.0759 22.7555 38.14 22.8104 38.2222C22.8654 38.3044 22.8947 38.4011 22.8947 38.5C22.8947 38.6326 22.842 38.7598 22.7483 38.8536C22.6545 38.9473 22.5273 39 22.3947 39Z" fill="#F48200"/>
<path d="M38.3947 37H37.8947V36.5C37.8947 35.837 37.6313 35.2011 37.1625 34.7322C36.6936 34.2634 36.0578 34 35.3947 34C34.7317 34 34.0958 34.2634 33.6269 34.7322C33.1581 35.2011 32.8947 35.837 32.8947 36.5V37H32.3947C32.2621 37 32.1349 37.0527 32.0412 37.1464C31.9474 37.2402 31.8947 37.3674 31.8947 37.5V43.5C31.8947 43.6326 31.9474 43.7598 32.0412 43.8536C32.1349 43.9473 32.2621 44 32.3947 44H38.3947C38.5273 44 38.6545 43.9473 38.7483 43.8536C38.842 43.7598 38.8947 43.6326 38.8947 43.5V37.5C38.8947 37.3674 38.842 37.2402 38.7483 37.1464C38.6545 37.0527 38.5273 37 38.3947 37ZM33.8947 36.5C33.8947 36.1022 34.0528 35.7206 34.3341 35.4393C34.6154 35.158 34.9969 35 35.3947 35C35.7925 35 36.1741 35.158 36.4554 35.4393C36.7367 35.7206 36.8947 36.1022 36.8947 36.5V37H33.8947V36.5ZM37.8947 43H32.8947V38H37.8947V43Z" fill="#F48200"/>
<path d="M36.3947 41H35.8947V39.5C35.8947 39.3674 35.842 39.2402 35.7483 39.1464C35.6545 39.0527 35.5273 39 35.3947 39C35.2621 39 35.1349 39.0527 35.0412 39.1464C34.9474 39.2402 34.8947 39.3674 34.8947 39.5V41H34.3947C34.2621 41 34.1349 41.0527 34.0412 41.1464C33.9474 41.2402 33.8947 41.3674 33.8947 41.5C33.8947 41.6326 33.9474 41.7598 34.0412 41.8536C34.1349 41.9473 34.2621 42 34.3947 42H36.3947C36.5273 42 36.6545 41.9473 36.7483 41.8536C36.842 41.7598 36.8947 41.6326 36.8947 41.5C36.8947 41.3674 36.842 41.2402 36.7483 41.1464C36.6545 41.0527 36.5273 41 36.3947 41Z" fill="#F48200"/>
</svg>
