<svg width="64" height="64" viewBox="0 0 64 64" fill="none" xmlns="http://www.w3.org/2000/svg">
<path d="M58.7128 47.4226L32 62.8453L5.28719 47.4226V16.5774L32 1.1547L58.7128 16.5774V47.4226Z" stroke="#F48200" stroke-width="2"/>
<path d="M32 38.5C25.375 38.5 20 37.155 20 35.5V43.5C20 45.155 25.375 46.5 32 46.5C38.625 46.5 44 45.155 44 43.5V35.5C44 37.155 38.625 38.5 32 38.5Z" fill="#FBD4A8"/>
<path d="M32 22.5C25.375 22.5 20 21.655 20 20V28C20 29.655 25.375 30.5 32 30.5C38.625 30.5 44 29.655 44 28V20C44 21.655 38.625 22.5 32 22.5Z" fill="#FBD4A8"/>
<path d="M25.076 25.4423C24.376 25.3168 23.7285 25.1703 23.149 25.0068C23.0855 24.988 23.019 24.9821 22.9532 24.9893C22.8874 24.9965 22.8237 25.0167 22.7658 25.0487C22.7078 25.0807 22.6568 25.1239 22.6157 25.1757C22.5746 25.2276 22.5442 25.2871 22.5263 25.3508C22.5083 25.4145 22.5032 25.4812 22.5112 25.5468C22.5193 25.6125 22.5402 25.676 22.5729 25.7335C22.6057 25.791 22.6495 25.8415 22.7018 25.882C22.7542 25.9224 22.8141 25.9521 22.878 25.9693C23.4885 26.1413 24.168 26.2953 24.899 26.4268C24.9284 26.4317 24.9582 26.4342 24.988 26.4343C25.1128 26.434 25.2329 26.3871 25.3249 26.3027C25.4169 26.2184 25.474 26.1027 25.485 25.9784C25.496 25.8542 25.4602 25.7302 25.3845 25.631C25.3088 25.5318 25.1988 25.4645 25.076 25.4423Z" fill="#F48200"/>
<path d="M27.031 25.7283C26.9648 25.7187 26.8974 25.7225 26.8327 25.7395C26.768 25.7564 26.7073 25.7862 26.6543 25.827C26.6013 25.8678 26.5571 25.9188 26.5241 25.977C26.4912 26.0352 26.4703 26.0994 26.4626 26.1659C26.455 26.2323 26.4607 26.2996 26.4795 26.3638C26.4984 26.428 26.5299 26.4877 26.5722 26.5395C26.6145 26.5913 26.6668 26.6341 26.7259 26.6653C26.7851 26.6965 26.8499 26.7156 26.9165 26.7213C28.6043 26.9108 30.3016 27.0037 32 26.9998C33.6941 27.0037 35.387 26.9112 37.0705 26.7228C37.1372 26.7172 37.2022 26.6983 37.2614 26.6672C37.3207 26.636 37.3731 26.5933 37.4156 26.5415C37.458 26.4897 37.4896 26.4299 37.5085 26.3657C37.5274 26.3014 37.5332 26.234 37.5256 26.1675C37.518 26.101 37.497 26.0367 37.4641 25.9784C37.4311 25.9201 37.3868 25.869 37.3337 25.8282C37.2806 25.7874 37.2199 25.7576 37.1551 25.7407C37.0903 25.7238 37.0228 25.7201 36.9565 25.7298C35.3108 25.9136 33.6559 26.0037 32 25.9998C30.3399 26.0038 28.6808 25.9132 27.031 25.7283Z" fill="#F48200"/>
<path d="M27.031 33.7283C26.9648 33.7187 26.8974 33.7225 26.8327 33.7395C26.768 33.7564 26.7073 33.7862 26.6543 33.827C26.6013 33.8678 26.5571 33.9188 26.5241 33.977C26.4912 34.0352 26.4703 34.0994 26.4626 34.1659C26.455 34.2323 26.4607 34.2996 26.4795 34.3638C26.4984 34.428 26.5299 34.4877 26.5722 34.5395C26.6145 34.5913 26.6668 34.6341 26.7259 34.6653C26.7851 34.6965 26.8499 34.7156 26.9165 34.7213C28.6043 34.9108 30.3016 35.0037 32 34.9998C33.6941 35.0037 35.387 34.9112 37.0705 34.7228C37.1372 34.7172 37.2022 34.6983 37.2614 34.6672C37.3207 34.636 37.3731 34.5933 37.4156 34.5415C37.458 34.4897 37.4896 34.4299 37.5085 34.3657C37.5274 34.3014 37.5332 34.234 37.5256 34.1675C37.518 34.101 37.497 34.0367 37.4641 33.9784C37.4311 33.9201 37.3868 33.869 37.3337 33.8282C37.2806 33.7874 37.2199 33.7576 37.1551 33.7407C37.0903 33.7238 37.0228 33.7201 36.9565 33.7298C35.3108 33.9136 33.6559 34.0037 32 33.9998C30.3399 34.0038 28.6808 33.9132 27.031 33.7283Z" fill="#F48200"/>
<path d="M36.9565 41.7298C35.3108 41.9136 33.6559 42.0037 32 41.9998C30.3399 42.0038 28.6808 41.9132 27.031 41.7283C26.9648 41.7187 26.8974 41.7225 26.8327 41.7395C26.768 41.7564 26.7073 41.7862 26.6543 41.827C26.6013 41.8678 26.5571 41.9188 26.5241 41.977C26.4912 42.0352 26.4703 42.0994 26.4626 42.1659C26.455 42.2323 26.4607 42.2996 26.4795 42.3638C26.4984 42.428 26.5299 42.4877 26.5722 42.5395C26.6145 42.5913 26.6668 42.6341 26.7259 42.6653C26.7851 42.6965 26.8499 42.7156 26.9165 42.7213C28.6043 42.9108 30.3016 43.0037 32 42.9998C33.6941 43.0037 35.387 42.9112 37.0705 42.7228C37.1372 42.7172 37.2022 42.6983 37.2614 42.6672C37.3207 42.636 37.3731 42.5933 37.4156 42.5415C37.458 42.4897 37.4896 42.4299 37.5085 42.3657C37.5274 42.3014 37.5332 42.234 37.5256 42.1675C37.518 42.101 37.497 42.0367 37.4641 41.9784C37.4311 41.9201 37.3868 41.869 37.3337 41.8282C37.2806 41.7874 37.2199 41.7576 37.1551 41.7407C37.0903 41.7238 37.0228 41.7201 36.9565 41.7298Z" fill="#F48200"/>
<path d="M25.076 33.4423C24.376 33.3168 23.7285 33.1703 23.149 33.0068C23.0855 32.988 23.019 32.9821 22.9532 32.9893C22.8874 32.9965 22.8237 33.0167 22.7658 33.0487C22.7078 33.0807 22.6568 33.1239 22.6157 33.1757C22.5746 33.2276 22.5442 33.2871 22.5263 33.3508C22.5083 33.4145 22.5032 33.4812 22.5112 33.5468C22.5193 33.6125 22.5402 33.676 22.5729 33.7335C22.6057 33.791 22.6495 33.8415 22.7018 33.882C22.7542 33.9224 22.8141 33.9521 22.878 33.9693C23.4885 34.1413 24.168 34.2953 24.899 34.4268C24.9284 34.4317 24.9582 34.4342 24.988 34.4343C25.1128 34.434 25.2329 34.3871 25.3249 34.3027C25.4169 34.2184 25.474 34.1027 25.485 33.9784C25.496 33.8542 25.4602 33.7302 25.3845 33.631C25.3088 33.5318 25.1988 33.4645 25.076 33.4423Z" fill="#F48200"/>
<path d="M25.076 41.4423C24.376 41.3168 23.7285 41.1703 23.149 41.0068C23.0855 40.988 23.019 40.9821 22.9532 40.9893C22.8874 40.9965 22.8237 41.0167 22.7658 41.0487C22.7078 41.0807 22.6568 41.1239 22.6157 41.1757C22.5746 41.2276 22.5442 41.2871 22.5263 41.3508C22.5083 41.4145 22.5032 41.4812 22.5112 41.5468C22.5193 41.6125 22.5402 41.676 22.5729 41.7335C22.6057 41.791 22.6495 41.8415 22.7018 41.882C22.7542 41.9224 22.8141 41.9521 22.878 41.9693C23.4885 42.1413 24.168 42.2953 24.899 42.4268C24.9284 42.4317 24.9582 42.4342 24.988 42.4343C25.1128 42.434 25.2329 42.3871 25.3249 42.3027C25.4169 42.2184 25.474 42.1027 25.485 41.9784C25.496 41.8542 25.4602 41.7302 25.3845 41.631C25.3088 41.5318 25.1988 41.4645 25.076 41.4423Z" fill="#F48200"/>
<path d="M40.5675 17.5929C37.7316 17.1715 34.8669 16.9732 32 16.9999C29.1331 16.9732 26.2684 17.1715 23.4325 17.5929C19.947 18.1734 19.5 18.9169 19.5 19.4999V43.4999C19.5 45.7999 25.7885 46.9999 32 46.9999C38.2115 46.9999 44.5 45.7999 44.5 43.4999V19.4999C44.5 18.9169 44.053 18.1734 40.5675 17.5929ZM43.5 35.4999C43.5 36.5194 39.02 37.9999 32 37.9999C24.98 37.9999 20.5 36.5194 20.5 35.4999V29.4074C22.7595 30.7614 28.35 30.9999 32 30.9999C35.65 30.9999 41.2405 30.7614 43.5 29.4074V35.4999ZM43.5 27.9999C43.5 28.8304 39.932 29.9999 32 29.9999C24.068 29.9999 20.5 28.8304 20.5 27.9999V21.4074C22.7595 22.7614 28.35 22.9999 32 22.9999C35.65 22.9999 41.2405 22.7614 43.5 21.4074V27.9999ZM20.5 19.5379C20.8705 19.0074 24.6605 17.9999 32 17.9999C39.3395 17.9999 43.1295 19.0074 43.5 19.5379V19.9999C43.5 20.8304 39.932 21.9999 32 21.9999C24.068 21.9999 20.5 20.8304 20.5 19.9999V19.5379ZM32 45.9999C24.98 45.9999 20.5 44.5194 20.5 43.4999V36.9619C22.5145 38.3044 27.278 38.9999 32 38.9999C36.722 38.9999 41.4855 38.3044 43.5 36.9619V43.4999C43.5 44.5194 39.02 45.9999 32 45.9999Z" fill="#F48200"/>
</svg>
