<svg width="80" height="80" viewBox="0 0 80 80" fill="none" xmlns="http://www.w3.org/2000/svg">
<path d="M73.641 59.4226L40 78.8453L6.35898 59.4226V20.5774L40 1.1547L73.641 20.5774V59.4226Z" stroke="#F48200" stroke-width="2"/>
<path d="M22 30.0713H51.5V33.0738H54.5V35.5759L57.5 36.0763V52.0898H28V49.5877L25.5 49.0873V46.5852L22.5 46.0848L22 30.0713Z" fill="#FBD4A8"/>
<mask id="path-3-inside-1_1996_3368" fill="white">
<path d="M22.4922 46.8352H24.8828V49.2278C24.8828 49.2925 24.8955 49.3566 24.9202 49.4163C24.9449 49.4761 24.9812 49.5304 25.0269 49.5762C25.0726 49.6219 25.1269 49.6582 25.1866 49.683C25.2463 49.7077 25.3104 49.7204 25.375 49.7204H27.7656V52.1158C27.7656 52.1805 27.7783 52.2446 27.803 52.3044C27.8277 52.3641 27.864 52.4185 27.9097 52.4642C27.9554 52.51 28.0097 52.5462 28.0694 52.571C28.1291 52.5957 28.1932 52.6084 28.2578 52.6084H57.5078C57.5725 52.6084 57.6365 52.5957 57.6962 52.571C57.7559 52.5462 57.8102 52.51 57.8559 52.4642C57.9016 52.4185 57.9379 52.3641 57.9626 52.3044C57.9873 52.2446 58 52.1805 58 52.1158V35.8207C58 35.6901 57.9481 35.5648 57.8558 35.4724C57.7635 35.38 57.6383 35.3281 57.5078 35.3281H55.1172V32.9355C55.1173 32.8708 55.1047 32.8066 55.08 32.7467C55.0554 32.6868 55.0191 32.6324 54.9734 32.5866C54.9277 32.5407 54.8734 32.5044 54.8136 32.4796C54.7538 32.4548 54.6897 32.4421 54.625 32.4421H52.2344V30.0495C52.2344 29.9848 52.2217 29.9207 52.197 29.8609C52.1723 29.8011 52.136 29.7468 52.0903 29.7011C52.0446 29.6553 51.9903 29.619 51.9306 29.5943C51.8709 29.5696 51.8068 29.5568 51.7422 29.5569H22.4922C22.362 29.5568 22.237 29.6084 22.1448 29.7004C22.0525 29.7924 22.0004 29.9172 22 30.0475V46.3426C22 46.4732 22.0519 46.5985 22.1442 46.6909C22.2365 46.7833 22.3617 46.8352 22.4922 46.8352ZM57.0156 51.6224H28.7523V36.3133H57.0156V51.6224ZM54.1317 35.3281H28.2601C28.1295 35.3281 28.0043 35.38 27.912 35.4724C27.8197 35.5648 27.7679 35.6901 27.7679 35.8207V48.736H25.8683V33.4273H54.1317V35.3281ZM22.9844 30.5409H51.2478V32.4421H25.375C25.3104 32.4421 25.2463 32.4548 25.1866 32.4795C25.1269 32.5042 25.0726 32.5405 25.0269 32.5863C24.9812 32.632 24.9449 32.6863 24.9202 32.7461C24.8955 32.8059 24.8828 32.87 24.8828 32.9347V45.85H22.9844V30.5409Z"/>
</mask>
<path d="M24.8828 46.8352H28.8828V42.8352H24.8828V46.8352ZM24.8828 49.2278L28.8828 49.2301V49.2278H24.8828ZM25.375 49.7204V45.7204L25.3727 45.7204L25.375 49.7204ZM27.7656 49.7204H31.7656V45.7204H27.7656V49.7204ZM27.7656 52.1158L31.7656 52.1181V52.1158H27.7656ZM28.2578 52.6084V48.6084L28.2555 48.6084L28.2578 52.6084ZM57.5078 52.6084L57.5101 48.6084H57.5078V52.6084ZM58 52.1158H54L54 52.1181L58 52.1158ZM58 35.8207H62H58ZM55.1172 35.3281H51.1172V39.3281H55.1172V35.3281ZM55.1172 32.9355L51.1172 32.9264V32.9355H55.1172ZM54.625 32.4421V36.4421L54.6273 36.4421L54.625 32.4421ZM52.2344 32.4421H48.2344V36.4421H52.2344V32.4421ZM52.2344 30.0495L48.2344 30.0472V30.0495H52.2344ZM51.7422 29.5569V33.5569L51.7445 33.5569L51.7422 29.5569ZM22.4922 29.5569L22.4899 33.5569H22.4922V29.5569ZM22 30.0475L18 30.0338V30.0475H22ZM57.0156 51.6224V55.6224H61.0156V51.6224H57.0156ZM28.7523 51.6224H24.7523V55.6224H28.7523V51.6224ZM28.7523 36.3133V32.3133H24.7523V36.3133H28.7523ZM57.0156 36.3133H61.0156V32.3133H57.0156V36.3133ZM54.1317 35.3281V39.3281H58.1317V35.3281H54.1317ZM28.2601 35.3281V39.3281V35.3281ZM27.7679 48.736V52.736H31.7679V48.736H27.7679ZM25.8683 48.736H21.8683V52.736H25.8683V48.736ZM25.8683 33.4273V29.4273H21.8683V33.4273H25.8683ZM54.1317 33.4273H58.1317V29.4273H54.1317V33.4273ZM22.9844 30.5409V26.5409H18.9844V30.5409H22.9844ZM51.2478 30.5409H55.2478V26.5409H51.2478V30.5409ZM51.2478 32.4421V36.4421H55.2478V32.4421H51.2478ZM25.375 32.4421L25.3727 36.4421H25.375V32.4421ZM24.8828 32.9347H28.8828V32.9324L24.8828 32.9347ZM24.8828 45.85V49.85H28.8828V45.85H24.8828ZM22.9844 45.85H18.9844V49.85H22.9844V45.85ZM22.4922 50.8352H24.8828V42.8352H22.4922V50.8352ZM20.8828 46.8352V49.2278H28.8828V46.8352H20.8828ZM20.8828 49.2255C20.8825 49.8155 20.9983 50.3997 21.2238 50.9449L28.6166 47.8877C28.7926 48.3134 28.8831 48.7695 28.8828 49.2301L20.8828 49.2255ZM21.2238 50.9449C21.4492 51.4901 21.7799 51.9857 22.1973 52.4034L27.8565 46.7489C28.1824 47.0751 28.4406 47.4622 28.6166 47.8877L21.2238 50.9449ZM22.1973 52.4034C22.6146 52.8211 23.1102 53.1524 23.6558 53.3785L26.7174 45.9875C27.1435 46.164 27.5306 46.4228 27.8565 46.7489L22.1973 52.4034ZM23.6558 53.3785C24.2015 53.6045 24.7865 53.7207 25.3773 53.7204L25.3727 45.7204C25.8342 45.7201 26.2911 45.8109 26.7174 45.9875L23.6558 53.3785ZM25.375 53.7204H27.7656V45.7204H25.375V53.7204ZM23.7656 49.7204V52.1158H31.7656V49.7204H23.7656ZM23.7656 52.1135C23.7653 52.7034 23.8811 53.2877 24.1066 53.8329L31.4994 50.7758C31.6755 51.2015 31.7659 51.6576 31.7656 52.1181L23.7656 52.1135ZM24.1066 53.8329C24.3321 54.3782 24.6628 54.8738 25.0801 55.2915L30.7393 49.6369C31.0651 49.9631 31.3234 50.3501 31.4994 50.7758L24.1066 53.8329ZM25.0801 55.2915C25.4974 55.7091 25.993 56.0405 26.5387 56.2665L29.6002 48.8755C30.0264 49.052 30.4135 49.3108 30.7393 49.6369L25.0801 55.2915ZM26.5387 56.2665C27.0843 56.4925 27.6693 56.6087 28.2601 56.6084L28.2555 48.6084C28.717 48.6081 29.174 48.6989 29.6002 48.8755L26.5387 56.2665ZM28.2578 56.6084H57.5078V48.6084H28.2578V56.6084ZM57.5055 56.6084C58.0963 56.6087 58.6813 56.4925 59.227 56.2665L56.1654 48.8755C56.5917 48.6989 57.0486 48.6081 57.5101 48.6084L57.5055 56.6084ZM59.227 56.2665C59.7726 56.0405 60.2683 55.7091 60.6855 55.2915L55.0263 49.6369C55.3522 49.3108 55.7392 49.052 56.1654 48.8755L59.227 56.2665ZM60.6855 55.2915C61.1028 54.8739 61.4335 54.3782 61.659 53.8329L54.2662 50.7758C54.4422 50.3501 54.7005 49.9631 55.0263 49.6369L60.6855 55.2915ZM61.659 53.8329C61.8845 53.2877 62.0003 52.7034 62 52.1135L54 52.1181C53.9997 51.6576 54.0902 51.2014 54.2662 50.7758L61.659 53.8329ZM62 52.1158V35.8207H54V52.1158H62ZM62 35.8207C62 34.6303 61.5275 33.4879 60.6854 32.6452L55.0262 38.2997C54.3688 37.6417 54 36.7499 54 35.8207H62ZM60.6854 32.6452C59.8433 31.8023 58.7003 31.3281 57.5078 31.3281V39.3281C56.5764 39.3281 55.6838 38.9578 55.0262 38.2997L60.6854 32.6452ZM57.5078 31.3281H55.1172V39.3281H57.5078V31.3281ZM59.1172 35.3281V32.9355H51.1172V35.3281H59.1172ZM59.1172 32.9447C59.1185 32.3541 59.0034 31.769 58.7784 31.2229L51.3817 34.2706C51.206 33.8442 51.1161 33.3874 51.1172 32.9264L59.1172 32.9447ZM58.7784 31.2229C58.5534 30.6768 58.2228 30.1802 57.8054 29.7618L52.1414 35.4114C51.8155 35.0846 51.5573 34.6969 51.3817 34.2706L58.7784 31.2229ZM57.8054 29.7618C57.388 29.3433 56.892 29.0112 56.3459 28.7847L53.2813 36.1744C52.8547 35.9975 52.4674 35.7382 52.1414 35.4114L57.8054 29.7618ZM56.3459 28.7847C55.7998 28.5582 55.2142 28.4417 54.6227 28.4421L54.6273 36.4421C54.1653 36.4424 53.7078 36.3514 53.2813 36.1744L56.3459 28.7847ZM54.625 28.4421H52.2344V36.4421H54.625V28.4421ZM56.2344 32.4421V30.0495H48.2344V32.4421H56.2344ZM56.2344 30.0518C56.2347 29.4619 56.1189 28.8776 55.8934 28.3323L48.5006 31.3895C48.3245 30.9638 48.2341 30.5077 48.2344 30.0472L56.2344 30.0518ZM55.8934 28.3323C55.6679 27.7871 55.3372 27.2914 54.9199 26.8738L49.2607 32.5283C48.9349 32.2022 48.6766 31.8152 48.5006 31.3895L55.8934 28.3323ZM54.9199 26.8738C54.5026 26.4562 54.007 26.1248 53.4613 25.8988L50.3998 33.2898C49.9736 33.1133 49.5865 32.8545 49.2607 32.5283L54.9199 26.8738ZM53.4613 25.8988C52.9156 25.6728 52.3307 25.5565 51.7399 25.5569L51.7445 33.5569C51.283 33.5571 50.8261 33.4664 50.3998 33.2898L53.4613 25.8988ZM51.7422 25.5569H22.4922V33.5569H51.7422V25.5569ZM22.4945 25.5569C21.3043 25.5562 20.1631 26.0279 19.3208 26.8675L24.9687 32.5333C24.311 33.1889 23.4196 33.5574 22.4899 33.5569L22.4945 25.5569ZM19.3208 26.8675C18.4787 27.7069 18.0041 28.8456 18 30.0338L26 30.0612C25.9968 30.9887 25.6263 31.8778 24.9687 32.5333L19.3208 26.8675ZM18 30.0475V46.3426H26V30.0475H18ZM18 46.3426C18 47.533 18.4725 48.6754 19.3146 49.5182L24.9738 43.8636C25.6312 44.5217 26 45.4135 26 46.3426H18ZM19.3146 49.5182C20.1568 50.3611 21.2997 50.8352 22.4922 50.8352V42.8352C23.4236 42.8352 24.3162 43.2055 24.9738 43.8636L19.3146 49.5182ZM57.0156 47.6224H28.7523V55.6224H57.0156V47.6224ZM32.7523 51.6224V36.3133H24.7523V51.6224H32.7523ZM28.7523 40.3133H57.0156V32.3133H28.7523V40.3133ZM53.0156 36.3133V51.6224H61.0156V36.3133H53.0156ZM54.1317 31.3281H28.2601V39.3281H54.1317V31.3281ZM28.2601 31.3281C27.0676 31.3281 25.9246 31.8023 25.0824 32.6452L30.7416 38.2997C30.0841 38.9578 29.1915 39.3281 28.2601 39.3281V31.3281ZM25.0824 32.6452C24.2403 33.488 23.7679 34.6303 23.7679 35.8207H31.7679C31.7679 36.7499 31.3991 37.6416 30.7416 38.2997L25.0824 32.6452ZM23.7679 35.8207V48.736H31.7679V35.8207H23.7679ZM27.7679 44.736H25.8683V52.736H27.7679V44.736ZM29.8683 48.736V33.4273H21.8683V48.736H29.8683ZM25.8683 37.4273H54.1317V29.4273H25.8683V37.4273ZM50.1317 33.4273V35.3281H58.1317V33.4273H50.1317ZM22.9844 34.5409H51.2478V26.5409H22.9844V34.5409ZM47.2478 30.5409V32.4421H55.2478V30.5409H47.2478ZM51.2478 28.4421H25.375V36.4421H51.2478V28.4421ZM25.3773 28.4421C24.7865 28.4417 24.2016 28.558 23.6558 28.784L26.7174 36.175C26.2911 36.3516 25.8342 36.4424 25.3727 36.4421L25.3773 28.4421ZM23.6558 28.784C23.1102 29.01 22.6146 29.3414 22.1973 29.759L27.8565 35.4135C27.5306 35.7397 27.1435 35.9985 26.7174 36.175L23.6558 28.784ZM22.1973 29.759C21.7799 30.1767 21.4492 30.6724 21.2238 31.2175L28.6166 34.2747C28.4406 34.7003 28.1824 35.0873 27.8565 35.4135L22.1973 29.759ZM21.2238 31.2175C20.9983 31.7627 20.8825 32.347 20.8828 32.937L28.8828 32.9324C28.8831 33.393 28.7926 33.8491 28.6166 34.2747L21.2238 31.2175ZM20.8828 32.9347V45.85H28.8828V32.9347H20.8828ZM24.8828 41.85H22.9844V49.85H24.8828V41.85ZM26.9844 45.85V30.5409H18.9844V45.85H26.9844Z" fill="#F48200" mask="url(#path-3-inside-1_1996_3368)"/>
<mask id="path-5-inside-2_1996_3368" fill="white">
<path d="M53.2562 38.0724C53.2562 38.0077 53.2435 37.9437 53.2188 37.8839C53.194 37.8241 53.1578 37.7698 53.1121 37.724C53.0664 37.6783 53.0121 37.642 52.9524 37.6173C52.8926 37.5925 52.8286 37.5798 52.764 37.5798H33.0039C32.9392 37.5798 32.8752 37.5925 32.8155 37.6173C32.7557 37.642 32.7015 37.6783 32.6557 37.724C32.61 37.7698 32.5738 37.8241 32.5491 37.8839C32.5243 37.9437 32.5116 38.0077 32.5117 38.0724C32.5111 38.6036 32.3 39.1128 31.9247 39.4883C31.5495 39.8639 31.0407 40.0752 30.51 40.0758C30.4454 40.0757 30.3813 40.0884 30.3216 40.1132C30.2619 40.1379 30.2076 40.1742 30.1619 40.22C30.1162 40.2657 30.0799 40.32 30.0552 40.3798C30.0305 40.4396 30.0178 40.5037 30.0178 40.5684V47.3671C30.0178 47.4318 30.0305 47.4958 30.0552 47.5556C30.0799 47.6154 30.1162 47.6697 30.1619 47.7155C30.2076 47.7612 30.2619 47.7975 30.3216 47.8223C30.3813 47.847 30.4454 47.8597 30.51 47.8597C31.0409 47.8602 31.5498 48.0715 31.9251 48.4473C32.3004 48.8231 32.5114 49.3325 32.5117 49.8638C32.5116 49.9285 32.5243 49.9926 32.5491 50.0524C32.5738 50.1122 32.61 50.1665 32.6557 50.2122C32.7015 50.258 32.7557 50.2943 32.8155 50.319C32.8752 50.3438 32.9392 50.3565 33.0039 50.3564H52.764C52.8286 50.3565 52.8926 50.3438 52.9524 50.319C53.0121 50.2943 53.0664 50.258 53.1121 50.2122C53.1578 50.1665 53.194 50.1122 53.2188 50.0524C53.2435 49.9926 53.2562 49.9285 53.2562 49.8638C53.2564 49.3325 53.4674 48.8231 53.8427 48.4473C54.218 48.0715 54.727 47.8602 55.2578 47.8597C55.3225 47.8597 55.3865 47.847 55.4462 47.8223C55.5059 47.7975 55.5602 47.7612 55.6059 47.7155C55.6516 47.6697 55.6879 47.6154 55.7126 47.5556C55.7373 47.4958 55.75 47.4318 55.75 47.3671V40.5684C55.75 40.5037 55.7373 40.4396 55.7126 40.3798C55.6879 40.32 55.6516 40.2657 55.6059 40.22C55.5602 40.1742 55.5059 40.1379 55.4462 40.1132C55.3865 40.0884 55.3225 40.0757 55.2578 40.0758C54.7271 40.0752 54.2183 39.8639 53.8431 39.4883C53.4678 39.1128 53.2567 38.6036 53.2562 38.0724ZM54.7656 46.9153C54.1526 47.0188 53.587 47.3109 53.1473 47.7508C52.7077 48.1908 52.4158 48.7569 52.3123 49.3704H33.4555C33.352 48.7569 33.0601 48.1908 32.6205 47.7508C32.1809 47.3109 31.6152 47.0188 31.0022 46.9153V41.0201C31.6152 40.9166 32.1809 40.6245 32.6205 40.1846C33.0601 39.7446 33.352 39.1786 33.4555 38.565H52.3123C52.4158 39.1786 52.7077 39.7446 53.1473 40.1846C53.587 40.6245 54.1526 40.9166 54.7656 41.0201V46.9153Z"/>
</mask>
<path d="M53.2562 38.0724L49.2561 38.0701L49.2562 38.0769L53.2562 38.0724ZM52.764 37.5798V41.5798L52.7663 41.5798L52.764 37.5798ZM33.0039 37.5798L33.0016 41.5798H33.0039V37.5798ZM32.5117 38.0724L36.5117 38.0769L36.5117 38.0701L32.5117 38.0724ZM30.51 40.0758L30.5077 44.0758L30.5145 44.0758L30.51 40.0758ZM30.0178 40.5684H34.0178L34.0178 40.5661L30.0178 40.5684ZM30.0178 47.3671L34.0178 47.3694V47.3671H30.0178ZM30.51 47.8597L30.5139 43.8597L30.5077 43.8597L30.51 47.8597ZM32.5117 49.8638L36.5117 49.8661L36.5117 49.8616L32.5117 49.8638ZM33.0039 50.3564V46.3564L33.0016 46.3564L33.0039 50.3564ZM52.764 50.3564L52.7663 46.3564H52.764V50.3564ZM53.2562 49.8638L49.2561 49.8616L49.2562 49.8661L53.2562 49.8638ZM55.2578 47.8597L55.2601 43.8597L55.2539 43.8597L55.2578 47.8597ZM55.75 47.3671H51.75L51.75 47.3694L55.75 47.3671ZM55.75 40.5684L51.75 40.5661V40.5684H55.75ZM55.2578 40.0758L55.2533 44.0758L55.2601 44.0758L55.2578 40.0758ZM54.7656 46.9153L55.4319 50.8594L58.7656 50.2962V46.9153H54.7656ZM52.3123 49.3704V53.3704H55.6938L56.2565 50.036L52.3123 49.3704ZM33.4555 49.3704L29.5113 50.036L30.074 53.3704H33.4555V49.3704ZM31.0022 46.9153H27.0022V50.2962L30.3359 50.8594L31.0022 46.9153ZM31.0022 41.0201L30.3359 37.076L27.0022 37.6392V41.0201H31.0022ZM33.4555 38.565V34.565H30.074L29.5113 37.8994L33.4555 38.565ZM52.3123 38.565L56.2565 37.8994L55.6938 34.565H52.3123V38.565ZM54.7656 41.0201H58.7656V37.6392L55.4319 37.076L54.7656 41.0201ZM57.2562 38.0747C57.2565 37.4848 57.1406 36.9005 56.9152 36.3553L49.5224 39.4125C49.3463 38.9868 49.2559 38.5307 49.2562 38.0701L57.2562 38.0747ZM56.9152 36.3553C56.6897 35.81 56.3589 35.3144 55.9417 34.8968L50.2825 40.5513C49.9566 40.2252 49.6984 39.8382 49.5224 39.4125L56.9152 36.3553ZM55.9417 34.8968C55.5245 34.4792 55.0289 34.1478 54.4831 33.9218L51.4216 41.3128C50.9953 41.1362 50.6083 40.8773 50.2825 40.5513L55.9417 34.8968ZM54.4831 33.9218C53.9374 33.6957 53.3524 33.5795 52.7617 33.5798L52.7663 41.5798C52.3048 41.5801 51.8478 41.4893 51.4216 41.3128L54.4831 33.9218ZM52.764 33.5798H33.0039V41.5798H52.764V33.5798ZM33.0061 33.5798C32.4154 33.5795 31.8304 33.6957 31.2847 33.9218L34.3462 41.3128C33.92 41.4893 33.463 41.5801 33.0016 41.5798L33.0061 33.5798ZM31.2847 33.9218C30.7389 34.1478 30.2434 34.4792 29.8261 34.8968L35.4854 40.5513C35.1596 40.8773 34.7725 41.1362 34.3462 41.3128L31.2847 33.9218ZM29.8261 34.8968C29.4089 35.3144 29.0781 35.81 28.8527 36.3553L36.2455 39.4125C36.0694 39.8382 35.8112 40.2252 35.4854 40.5513L29.8261 34.8968ZM28.8527 36.3553C28.6272 36.9005 28.5113 37.4848 28.5117 38.0747L36.5117 38.0701C36.5119 38.5307 36.4215 38.9868 36.2455 39.4125L28.8527 36.3553ZM28.5117 38.0679C28.5123 37.5408 28.7217 37.0348 29.0951 36.6611L34.7543 42.3156C35.8783 41.1907 36.5099 39.6663 36.5117 38.0769L28.5117 38.0679ZM29.0951 36.6611C29.4687 36.2873 29.9758 36.0764 30.5055 36.0758L30.5145 44.0758C32.1056 44.074 33.6303 43.4406 34.7543 42.3156L29.0951 36.6611ZM30.5123 36.0758C29.9215 36.0754 29.3366 36.1916 28.7908 36.4177L31.8524 43.8087C31.4261 43.9853 30.9692 44.076 30.5077 44.0758L30.5123 36.0758ZM28.7908 36.4177C28.2452 36.6437 27.7496 36.9751 27.3323 37.3927L32.9915 43.0472C32.6657 43.3733 32.2786 43.6321 31.8524 43.8087L28.7908 36.4177ZM27.3323 37.3927C26.915 37.8103 26.5843 38.306 26.3588 38.8512L33.7516 41.9084C33.5756 42.3341 33.3173 42.7211 32.9915 43.0472L27.3323 37.3927ZM26.3588 38.8512C26.1333 39.3965 26.0175 39.9808 26.0178 40.5706L34.0178 40.5661C34.0181 41.0266 33.9277 41.4827 33.7516 41.9084L26.3588 38.8512ZM26.0178 40.5684V47.3671H34.0178V40.5684H26.0178ZM26.0178 47.3648C26.0175 47.9547 26.1333 48.539 26.3588 49.0842L33.7516 46.027C33.9277 46.4527 34.0181 46.9089 34.0178 47.3694L26.0178 47.3648ZM26.3588 49.0842C26.5843 49.6295 26.915 50.1251 27.3323 50.5427L32.9915 44.8882C33.3173 45.2143 33.5756 45.6014 33.7516 46.027L26.3588 49.0842ZM27.3323 50.5427C27.7496 50.9603 28.2452 51.2917 28.7908 51.5178L31.8524 44.1267C32.2786 44.3033 32.6657 44.5621 32.9915 44.8882L27.3323 50.5427ZM28.7908 51.5178C29.3365 51.7438 29.9215 51.86 30.5123 51.8597L30.5077 43.8597C30.9692 43.8594 31.4262 43.9502 31.8524 44.1267L28.7908 51.5178ZM30.5061 51.8597C29.9761 51.8591 29.4686 51.6481 29.0949 51.274L34.7553 45.6207C33.6311 44.495 32.1057 43.8612 30.5139 43.8597L30.5061 51.8597ZM29.0949 51.274C28.7214 50.8999 28.512 50.3935 28.5117 49.8661L36.5117 49.8616C36.5108 48.2716 35.8795 46.7462 34.7553 45.6207L29.0949 51.274ZM28.5117 49.8616C28.5113 50.4515 28.6272 51.0357 28.8527 51.581L36.2455 48.5238C36.4215 48.9495 36.5119 49.4056 36.5117 49.8661L28.5117 49.8616ZM28.8527 51.581C29.0781 52.1262 29.4089 52.6219 29.8261 53.0395L35.4854 47.385C35.8112 47.7111 36.0694 48.0981 36.2455 48.5238L28.8527 51.581ZM29.8261 53.0395C30.2434 53.4571 30.739 53.7885 31.2847 54.0145L34.3462 46.6235C34.7724 46.8001 35.1595 47.0589 35.4854 47.385L29.8261 53.0395ZM31.2847 54.0145C31.8304 54.2406 32.4154 54.3568 33.0061 54.3564L33.0016 46.3564C33.4631 46.3562 33.92 46.447 34.3462 46.6235L31.2847 54.0145ZM33.0039 54.3564H52.764V46.3564H33.0039V54.3564ZM52.7617 54.3564C53.3525 54.3568 53.9374 54.2406 54.4831 54.0145L51.4216 46.6235C51.8478 46.447 52.3047 46.3562 52.7663 46.3564L52.7617 54.3564ZM54.4831 54.0145C55.0288 53.7885 55.5244 53.4571 55.9417 53.0395L50.2825 47.385C50.6083 47.0589 50.9954 46.8001 51.4216 46.6235L54.4831 54.0145ZM55.9417 53.0395C56.3589 52.6219 56.6897 52.1262 56.9152 51.581L49.5224 48.5238C49.6984 48.0981 49.9566 47.7111 50.2825 47.385L55.9417 53.0395ZM56.9152 51.581C57.1406 51.0357 57.2565 50.4515 57.2562 49.8616L49.2562 49.8661C49.2559 49.4056 49.3463 48.9495 49.5224 48.5238L56.9152 51.581ZM57.2562 49.8661C57.2559 50.3935 57.0465 50.8999 56.6729 51.274L51.0125 45.6207C49.8883 46.7462 49.257 48.2716 49.2562 49.8616L57.2562 49.8661ZM56.6729 51.274C56.2992 51.6481 55.7918 51.8591 55.2617 51.8597L55.2539 43.8597C53.6622 43.8612 52.1368 44.495 51.0125 45.6207L56.6729 51.274ZM55.2555 51.8597C55.8463 51.86 56.4313 51.7438 56.977 51.5178L53.9154 44.1267C54.3416 43.9502 54.7986 43.8594 55.2601 43.8597L55.2555 51.8597ZM56.977 51.5178C57.5227 51.2917 58.0183 50.9603 58.4355 50.5427L52.7763 44.8882C53.1022 44.5621 53.4892 44.3033 53.9154 44.1267L56.977 51.5178ZM58.4355 50.5427C58.8528 50.1251 59.1835 49.6295 59.409 49.0842L52.0162 46.027C52.1922 45.6013 52.4505 45.2143 52.7763 44.8882L58.4355 50.5427ZM59.409 49.0842C59.6345 48.539 59.7503 47.9547 59.75 47.3648L51.75 47.3694C51.7497 46.9088 51.8402 46.4527 52.0162 46.027L59.409 49.0842ZM59.75 47.3671V40.5684H51.75V47.3671H59.75ZM59.75 40.5706C59.7503 39.9807 59.6345 39.3965 59.409 38.8512L52.0162 41.9084C51.8402 41.4827 51.7497 41.0266 51.75 40.5661L59.75 40.5706ZM59.409 38.8512C59.1835 38.306 58.8528 37.8103 58.4355 37.3927L52.7763 43.0472C52.4505 42.7211 52.1922 42.3341 52.0162 41.9084L59.409 38.8512ZM58.4355 37.3927C58.0183 36.9751 57.5227 36.6437 56.977 36.4177L53.9154 43.8087C53.4892 43.6321 53.1022 43.3733 52.7763 43.0472L58.4355 37.3927ZM56.977 36.4177C56.4313 36.1916 55.8463 36.0754 55.2555 36.0758L55.2601 44.0758C54.7986 44.076 54.3417 43.9852 53.9154 43.8087L56.977 36.4177ZM55.2623 36.0758C55.792 36.0764 56.2992 36.2873 56.6727 36.6611L51.0135 42.3156C52.1375 43.4406 53.6622 44.074 55.2533 44.0758L55.2623 36.0758ZM56.6727 36.6611C57.0461 37.0348 57.2556 37.5408 57.2561 38.0679L49.2562 38.0769C49.2579 39.6663 49.8895 41.1907 51.0135 42.3156L56.6727 36.6611ZM54.0993 42.9712C52.6664 43.2132 51.3448 43.8958 50.3179 44.9234L55.9768 50.5783C55.8291 50.726 55.6388 50.8245 55.4319 50.8594L54.0993 42.9712ZM50.3179 44.9234C49.291 45.951 48.6097 47.2727 48.368 48.7048L56.2565 50.036C56.2219 50.241 56.1243 50.4306 55.9768 50.5783L50.3179 44.9234ZM52.3123 45.3704H33.4555V53.3704H52.3123V45.3704ZM37.3998 48.7048C37.1581 47.2727 36.4768 45.951 35.4499 44.9234L29.7911 50.5783C29.6435 50.4306 29.5459 50.241 29.5113 50.036L37.3998 48.7048ZM35.4499 44.9234C34.423 43.8958 33.1014 43.2132 31.6685 42.9712L30.3359 50.8594C30.129 50.8245 29.9387 50.726 29.7911 50.5783L35.4499 44.9234ZM35.0022 46.9153V41.0201H27.0022V46.9153H35.0022ZM31.6685 44.9643C33.1014 44.7222 34.423 44.0397 35.4499 43.012L29.7911 37.3572C29.9387 37.2094 30.1291 37.111 30.3359 37.076L31.6685 44.9643ZM35.4499 43.012C36.4768 41.9844 37.1581 40.6627 37.3998 39.2307L29.5113 37.8994C29.5459 37.6944 29.6435 37.5049 29.7911 37.3572L35.4499 43.012ZM33.4555 42.565H52.3123V34.565H33.4555V42.565ZM48.368 39.2307C48.6097 40.6627 49.291 41.9844 50.3179 43.012L55.9768 37.3572C56.1244 37.5049 56.2219 37.6944 56.2565 37.8994L48.368 39.2307ZM50.3179 43.012C51.3448 44.0397 52.6664 44.7222 54.0993 44.9643L55.4319 37.076C55.6388 37.111 55.8291 37.2094 55.9768 37.3572L50.3179 43.012ZM50.7656 41.0201V46.9153H58.7656V41.0201H50.7656Z" fill="#F48200" mask="url(#path-5-inside-2_1996_3368)"/>
<path d="M43.3786 43.4487V41.4667C44.0022 41.5155 44.2339 41.828 44.4477 41.828C44.715 41.828 44.8397 41.457 44.8397 41.2714C44.8397 40.7929 43.9844 40.5879 43.3786 40.5684V40.3046C43.3786 40.1875 43.245 40.0801 43.1114 40.0801C42.9599 40.0801 42.853 40.1875 42.853 40.3046V40.5878C42.0066 40.6855 41.1603 41.1737 41.1603 42.404C41.1603 43.6538 42.0512 44.0053 42.853 44.3178V46.6124C41.9443 46.5343 41.7038 45.8508 41.4098 45.8508C41.187 45.8508 41 46.173 41 46.4074C41 46.8858 41.7483 47.54 42.853 47.5595V47.8622C42.853 47.9794 42.9599 48.0868 43.1114 48.0868C43.245 48.0868 43.3786 47.9794 43.3786 47.8622V47.5303C44.3408 47.3837 45 46.7198 45 45.5188C45 44.1909 44.1537 43.7612 43.3786 43.4487ZM42.9064 43.2633C42.4342 43.068 42.0512 42.863 42.0512 42.3064C42.0512 41.7987 42.4075 41.5546 42.9064 41.4863V43.2633ZM43.3251 46.5928V44.5326C43.7616 44.7376 44.1091 45.011 44.1091 45.6261C44.1091 46.1828 43.8062 46.4952 43.3251 46.5928Z" fill="#F48200"/>
<mask id="path-8-inside-3_1996_3368" fill="white">
<path d="M36.8391 42.4657C36.5423 42.4657 36.2521 42.5538 36.0054 42.7188C35.7586 42.8839 35.5662 43.1185 35.4526 43.3929C35.339 43.6674 35.3093 43.9694 35.3672 44.2607C35.4251 44.5521 35.5681 44.8197 35.7779 45.0298C35.9878 45.2399 36.2552 45.3829 36.5463 45.4409C36.8374 45.4988 37.1392 45.4691 37.4134 45.3554C37.6876 45.2417 37.922 45.0492 38.0869 44.8022C38.2518 44.5552 38.3398 44.2648 38.3398 43.9677C38.3394 43.5695 38.1811 43.1877 37.8998 42.9061C37.6185 42.6245 37.237 42.4661 36.8391 42.4657ZM36.8391 44.4845C36.737 44.4845 36.6371 44.4542 36.5522 44.3974C36.4673 44.3406 36.4011 44.2599 36.362 44.1655C36.323 44.0711 36.3127 43.9671 36.3327 43.8669C36.3526 43.7666 36.4018 43.6746 36.474 43.6023C36.5462 43.53 36.6382 43.4808 36.7384 43.4608C36.8385 43.4409 36.9424 43.4511 37.0367 43.4902C37.1311 43.5294 37.2117 43.5956 37.2685 43.6806C37.3252 43.7656 37.3555 43.8655 37.3555 43.9677C37.3554 44.1048 37.301 44.2362 37.2042 44.3331C37.1073 44.43 36.976 44.4844 36.8391 44.4845Z"/>
</mask>
<path d="M38.3398 43.9677H42.3398L42.3398 43.9632L38.3398 43.9677ZM36.7384 43.4608L35.9574 39.5378L36.7384 43.4608ZM37.3555 43.9677L41.3555 43.9699V43.9677H37.3555ZM36.8391 38.4657C35.7504 38.4657 34.6864 38.7888 33.7818 39.3938L38.2289 46.0438C37.8179 46.3187 37.3342 46.4657 36.8391 46.4657V38.4657ZM33.7818 39.3938C32.8771 39.9988 32.1726 40.8583 31.7566 41.8633L39.1486 44.9225C38.9598 45.3786 38.64 45.7689 38.2289 46.0438L33.7818 39.3938ZM31.7566 41.8633C31.3407 42.8682 31.232 43.9738 31.4439 45.0405L39.2905 43.481C39.3867 43.9649 39.3373 44.4665 39.1486 44.9225L31.7566 41.8633ZM31.4439 45.0405C31.6559 46.1071 32.1793 47.0873 32.9483 47.857L38.6076 42.2026C38.9568 42.5521 39.1943 42.9971 39.2905 43.481L31.4439 45.0405ZM32.9483 47.857C33.7174 48.6267 34.6976 49.1513 35.7653 49.3639L37.3273 41.5179C37.8128 41.6145 38.2583 41.853 38.6076 42.2026L32.9483 47.857ZM35.7653 49.3639C36.833 49.5764 37.9397 49.4673 38.9453 49.0504L35.8816 41.6603C36.3387 41.4708 36.8419 41.4212 37.3273 41.5179L35.7653 49.3639ZM38.9453 49.0504C39.9508 48.6336 40.8097 47.9279 41.4137 47.0232L34.7602 42.5812C35.0344 42.1705 35.4245 41.8498 35.8816 41.6603L38.9453 49.0504ZM41.4137 47.0232C42.0177 46.1185 42.3398 45.0552 42.3398 43.9677H34.3398C34.3398 43.4744 34.486 42.9919 34.7602 42.5812L41.4137 47.0232ZM42.3398 43.9632C42.3382 42.5068 41.7594 41.1098 40.7294 40.0789L35.0702 45.7333C34.6028 45.2656 34.3406 44.6322 34.3398 43.9722L42.3398 43.9632ZM40.7294 40.0789C39.6993 39.0479 38.3019 38.4673 36.8436 38.4657L36.8346 46.4657C36.1721 46.465 35.5376 46.2012 35.0702 45.7333L40.7294 40.0789ZM36.8391 40.4845C37.5289 40.4845 38.2029 40.6892 38.7758 41.0724L34.3286 47.7224C35.0714 48.2192 35.9451 48.4845 36.8391 48.4845V40.4845ZM38.7758 41.0724C39.3487 41.4556 39.7948 41.9998 40.058 42.6359L32.6661 45.6951C33.0075 46.5201 33.5859 47.2257 34.3286 47.7224L38.7758 41.0724ZM40.058 42.6359C40.3213 43.2719 40.3901 43.9716 40.2559 44.6466L32.4094 43.0872C32.2354 43.9627 32.3247 44.8702 32.6661 45.6951L40.058 42.6359ZM40.2559 44.6466C40.1218 45.3216 39.7906 45.9421 39.3036 46.4295L33.6443 40.7751C33.013 41.407 32.5834 42.2116 32.4094 43.0872L40.2559 44.6466ZM39.3036 46.4295C38.8167 46.9169 38.1958 47.2492 37.5194 47.3838L35.9574 39.5378C35.0806 39.7124 34.2757 40.1431 33.6443 40.7751L39.3036 46.4295ZM37.5194 47.3838C36.8429 47.5185 36.1418 47.4494 35.5049 47.1853L38.5686 39.7952C37.7429 39.4529 36.8341 39.3633 35.9574 39.5378L37.5194 47.3838ZM35.5049 47.1853C34.8679 46.9212 34.3241 46.4743 33.9417 45.9016L40.5952 41.4596C40.0994 40.7169 39.3942 40.1375 38.5686 39.7952L35.5049 47.1853ZM33.9417 45.9016C33.5594 45.3289 33.3555 44.6559 33.3555 43.9677H41.3555C41.3555 43.0751 41.091 42.2023 40.5952 41.4596L33.9417 45.9016ZM33.3555 43.9655C33.356 43.0436 33.7221 42.1588 34.3745 41.5059L40.0338 47.1603C40.8798 46.3135 41.3548 45.166 41.3555 43.9699L33.3555 43.9655ZM34.3745 41.5059C35.0271 40.8528 35.9127 40.485 36.8369 40.4845L36.8413 48.4845C38.0394 48.4839 39.1876 48.0072 40.0338 47.1603L34.3745 41.5059Z" fill="#F48200" mask="url(#path-8-inside-3_1996_3368)"/>
<mask id="path-10-inside-4_1996_3368" fill="white">
<path d="M48.929 42.4657C48.6321 42.4657 48.342 42.5538 48.0952 42.7188C47.8484 42.8839 47.656 43.1185 47.5425 43.3929C47.4289 43.6674 47.3992 43.9694 47.4571 44.2607C47.515 44.5521 47.6579 44.8197 47.8678 45.0298C48.0777 45.2399 48.3451 45.3829 48.6362 45.4409C48.9273 45.4988 49.229 45.4691 49.5033 45.3554C49.7775 45.2417 50.0119 45.0492 50.1768 44.8022C50.3417 44.5552 50.4297 44.2648 50.4297 43.9677C50.4292 43.5695 50.271 43.1877 49.9896 42.9061C49.7083 42.6245 49.3268 42.4661 48.929 42.4657ZM48.929 44.4845C48.8268 44.4845 48.727 44.4542 48.6421 44.3974C48.5572 44.3406 48.491 44.2599 48.4519 44.1655C48.4128 44.0711 48.4026 43.9671 48.4225 43.8669C48.4424 43.7666 48.4916 43.6746 48.5638 43.6023C48.636 43.53 48.7281 43.4808 48.8282 43.4608C48.9284 43.4409 49.0322 43.4511 49.1266 43.4902C49.2209 43.5294 49.3016 43.5956 49.3583 43.6806C49.415 43.7656 49.4453 43.8655 49.4453 43.9677C49.4452 44.1048 49.3908 44.2362 49.294 44.3331C49.1972 44.43 49.0659 44.4844 48.929 44.4845Z"/>
</mask>
<path d="M50.4297 43.9677H54.4297L54.4297 43.9632L50.4297 43.9677ZM48.8282 43.4608L48.0472 39.5378L48.8282 43.4608ZM49.4453 43.9677L53.4453 43.9699V43.9677H49.4453ZM48.929 38.4657C47.8402 38.4657 46.7763 38.7888 45.8716 39.3938L50.3188 46.0438C49.9077 46.3187 49.424 46.4657 48.929 46.4657V38.4657ZM45.8716 39.3938C44.967 39.9988 44.2624 40.8583 43.8465 41.8633L51.2384 44.9225C51.0497 45.3786 50.7298 45.7689 50.3188 46.0438L45.8716 39.3938ZM43.8465 41.8633C43.4306 42.8682 43.3218 43.9738 43.5338 45.0405L51.3803 43.481C51.4765 43.9649 51.4272 44.4665 51.2384 44.9225L43.8465 41.8633ZM43.5338 45.0405C43.7458 46.1071 44.2691 47.0873 45.0381 47.857L50.6974 42.2026C51.0467 42.5521 51.2842 42.9971 51.3803 43.481L43.5338 45.0405ZM45.0381 47.857C45.8072 48.6267 46.7875 49.1513 47.8552 49.3639L49.4172 41.5179C49.9026 41.6145 50.3481 41.853 50.6974 42.2026L45.0381 47.857ZM47.8552 49.3639C48.9229 49.5764 50.0296 49.4673 51.0351 49.0504L47.9714 41.6603C48.4285 41.4708 48.9317 41.4212 49.4172 41.5179L47.8552 49.3639ZM51.0351 49.0504C52.0406 48.6336 52.8995 47.9279 53.5035 47.0232L46.85 42.5812C47.1242 42.1705 47.5143 41.8498 47.9714 41.6603L51.0351 49.0504ZM53.5035 47.0232C54.1075 46.1184 54.4297 45.0551 54.4297 43.9677H46.4297C46.4297 43.4744 46.5758 42.9919 46.85 42.5812L53.5035 47.0232ZM54.4297 43.9632C54.4281 42.5068 53.8493 41.1098 52.8193 40.0789L47.16 45.7333C46.6927 45.2656 46.4304 44.6322 46.4297 43.9722L54.4297 43.9632ZM52.8193 40.0789C51.7891 39.0479 50.3917 38.4673 48.9334 38.4657L48.9245 46.4657C48.2619 46.465 47.6274 46.2012 47.16 45.7333L52.8193 40.0789ZM48.929 40.4845C49.6187 40.4845 50.2927 40.6892 50.8657 41.0724L46.4185 47.7224C47.1613 48.2192 48.0349 48.4845 48.929 48.4845V40.4845ZM50.8657 41.0724C51.4386 41.4556 51.8846 41.9998 52.1479 42.6359L44.7559 45.6951C45.0973 46.5201 45.6757 47.2257 46.4185 47.7224L50.8657 41.0724ZM52.1479 42.6359C52.4111 43.2719 52.4799 43.9716 52.3458 44.6466L44.4992 43.0872C44.3252 43.9627 44.4145 44.8702 44.7559 45.6951L52.1479 42.6359ZM52.3458 44.6466C52.2116 45.3216 51.8804 45.9421 51.3935 46.4295L45.7342 40.7751C45.1028 41.407 44.6732 42.2116 44.4992 43.0872L52.3458 44.6466ZM51.3935 46.4295C50.9065 46.9169 50.2856 47.2492 49.6092 47.3838L48.0472 39.5378C47.1705 39.7124 46.3656 40.1431 45.7342 40.7751L51.3935 46.4295ZM49.6092 47.3838C48.9328 47.5185 48.2317 47.4494 47.5947 47.1853L50.6584 39.7952C49.8327 39.4529 48.924 39.3633 48.0472 39.5378L49.6092 47.3838ZM47.5947 47.1853C46.9578 46.9212 46.4139 46.4743 46.0315 45.9016L52.6851 41.4596C52.1892 40.7169 51.4841 40.1375 50.6584 39.7952L47.5947 47.1853ZM46.0315 45.9016C45.6492 45.3288 45.4453 44.6559 45.4453 43.9677H53.4453C53.4453 43.0751 53.1809 42.2023 52.6851 41.4596L46.0315 45.9016ZM45.4453 43.9655C45.4458 43.0436 45.812 42.1588 46.4644 41.5059L52.1236 47.1603C52.9697 46.3135 53.4447 45.1659 53.4453 43.9699L45.4453 43.9655ZM46.4644 41.5059C47.1169 40.8528 48.0025 40.485 48.9268 40.4845L48.9311 48.4845C50.1293 48.4839 51.2775 48.0072 52.1236 47.1603L46.4644 41.5059Z" fill="#F48200" mask="url(#path-10-inside-4_1996_3368)"/>
</svg>
