<svg width="80" height="80" viewBox="0 0 80 80" fill="none" xmlns="http://www.w3.org/2000/svg">
<path d="M73.641 59.4226L40 78.8453L6.35898 59.4226V20.5774L40 1.1547L73.641 20.5774V59.4226Z" stroke="#F48200" stroke-width="2"/>
<g clip-path="url(#clip0_1996_3366)">
<path d="M45.1223 43.3025L45.5751 43.7883L46.0167 43.2922L46.8024 42.4095C46.8268 42.3854 46.9072 42.3373 47.0536 42.3373C47.1159 42.3373 47.1365 42.3466 47.1418 42.3491L47.142 42.3491C47.1506 42.353 47.1781 42.3671 47.2351 42.4249L56.2836 51.6318L56.2903 51.6386L56.2972 51.6452C56.3213 51.6682 56.3741 51.7552 56.3741 51.9152C56.3741 51.9836 56.3637 52.0114 56.3593 52.0216C56.3548 52.032 56.3426 52.056 56.2972 52.0994L56.2872 52.109L56.2777 52.119L53.2261 55.3132L53.2261 55.3131L53.2199 55.3197C53.1983 55.3431 53.1175 55.3941 52.9667 55.3941C52.9137 55.3941 52.8941 55.3855 52.8845 55.3811C52.8693 55.374 52.8381 55.3558 52.7782 55.2994L43.7045 46.0883C43.6524 46.0355 43.6022 45.9706 43.568 45.9074C43.5517 45.8773 43.5416 45.8523 43.5359 45.8334C43.5403 45.8246 43.546 45.814 43.5533 45.8015C43.5896 45.74 43.6448 45.669 43.7045 45.6084L44.4859 44.8152L44.9026 44.3921L44.4874 43.9676C43.0088 42.4559 41.868 41.2978 40.7385 40.1512L40.7374 40.1501L40.2995 39.7056L39.8687 40.157L37.2532 42.8978L32.1986 48.0396L31.9315 48.3113L32.0611 48.6695C32.5902 50.1325 32.2131 51.9265 30.9742 53.1842L30.973 53.1854C29.3014 54.8917 26.5477 54.8951 24.8618 53.1894C23.1607 51.3716 23.174 48.5681 24.8493 46.8593C26.0983 45.6822 27.7798 45.3109 29.2907 45.8501L29.6564 45.9806L29.9273 45.7025L37.6143 37.8134L38.0279 37.3889L37.612 36.9667C37.1096 36.4567 36.5694 35.9171 35.9766 35.3249C34.5997 33.9494 32.9387 32.2902 30.8079 30.0597L30.6291 29.8726H30.4492L27.7881 28.3233L27.7512 28.2858L27.7073 28.2412L25.8791 25.4575L26.9555 24.4353L29.624 26.3206L31.3469 29.2813L31.3832 29.3437L31.4332 29.3958C33.6565 31.7134 35.3587 33.4164 36.7174 34.7758C37.2834 35.342 37.7897 35.8486 38.2493 36.3152L38.6773 36.7496L39.1083 36.3183L45.0424 30.38L45.3264 30.0959L45.1747 29.7239C44.3981 27.8204 44.787 25.5959 46.2641 24.0914C47.4796 22.9316 49.1376 22.3802 50.7575 22.6999L47.6739 25.8989L47.2648 26.3233L47.6785 26.7433L50.9096 30.0232L51.3453 30.4655L51.7762 30.0185L54.86 26.8192C55.1553 28.5216 54.6602 30.2331 53.4332 31.4786C52.0277 32.9054 49.8409 33.3786 47.9874 32.5899L47.6114 32.4299L47.3226 32.7189L41.3884 38.6571L40.9641 39.0817L41.3854 39.5094C41.7587 39.8883 42.1273 40.2535 42.5058 40.6284C43.2923 41.4075 44.1212 42.2286 45.1223 43.3025Z" fill="#FBD4A8" stroke="#F48200" stroke-width="1.21"/>
<ellipse cx="28.0137" cy="50.1369" rx="3.43168" ry="3.48361" fill="#FBD4A8"/>
<rect width="4.7395" height="12.8991" rx="0.5" transform="matrix(0.699254 -0.714873 0.704291 0.709911 43.8164 45.9268)" fill="#FBD4A8"/>
<rect width="1.24383" height="13.3711" transform="matrix(0.701777 -0.712397 0.701777 0.712397 44.9453 44.5371)" fill="#F48200"/>
</g>
<defs>
<clipPath id="clip0_1996_3366">
<rect width="34" height="34" fill="white" transform="translate(23 22)"/>
</clipPath>
</defs>
</svg>
