<svg width="80" height="80" viewBox="0 0 80 80" fill="none" xmlns="http://www.w3.org/2000/svg">
<path d="M73.641 59.4226L40 78.8453L6.35898 59.4226V20.5774L40 1.1547L73.641 20.5774V59.4226Z" stroke="#F48200" stroke-width="2"/>
<path d="M28.8453 37.2895L28.8559 37.2898H28.8664C31.2497 37.2898 33.1382 35.4079 33.1382 33.0262C33.1382 30.7171 31.2564 28.7626 28.925 28.7626C26.6154 28.7626 24.6532 30.6296 24.6532 32.9678C24.6532 35.346 26.5338 37.2198 28.8453 37.2895ZM25.1209 39.3635L24.6925 39.106L24.3099 39.4277L23.5603 40.0577C23.3112 40.2004 23.0909 40.1571 22.9491 40.0156L21.6969 38.7663C21.5238 38.5535 21.5621 38.3485 21.6456 38.2516L21.6472 38.2497L22.3718 37.4026L22.6992 37.0199L22.4404 36.5879C22.1197 36.0525 21.9008 35.5069 21.7316 34.8923L21.613 34.4616L21.1723 34.3878L20.0817 34.2052L20.0661 34.2026L20.0505 34.2007C19.8338 34.1744 19.7 34.0336 19.7 33.8076V31.9966C19.7 31.8668 19.7987 31.6771 20.0972 31.5922L21.1934 31.4808L21.6755 31.4318L21.7994 30.9633C21.9598 30.3563 22.1769 29.8201 22.505 29.2768L22.7574 28.8588L22.4523 28.4776L21.7407 27.5884C21.6895 27.5125 21.6583 27.4056 21.6642 27.3007C21.6699 27.1963 21.7082 27.1336 21.7494 27.0988L21.7711 27.0805L21.7912 27.0605L23.0648 25.7972L23.0662 25.7958C23.2246 25.6378 23.4346 25.6279 23.6035 25.7386L24.5563 26.5034L24.9391 26.8106L25.3583 26.5555C25.8897 26.2322 26.4302 26.0158 27.0978 25.8476L27.5728 25.7279L27.6231 25.2407L27.7472 24.0393C27.7472 24.0389 27.7472 24.0385 27.7473 24.0382C27.7665 23.8669 27.9348 23.7046 28.1334 23.7001L29.9271 23.7581L29.9384 23.7584H29.9497C30.1514 23.7584 30.3238 23.9221 30.344 24.0952L30.468 25.3612L30.519 25.8816L31.0325 25.9804C31.5313 26.0763 32.1207 26.3408 32.6412 26.6285L33.0361 26.8468L33.3979 26.5774L34.3787 25.8471L34.3984 25.8324L34.4171 25.8164C34.5466 25.705 34.7918 25.7162 34.9155 25.8396L36.189 27.1102C36.329 27.2499 36.3692 27.4542 36.1904 27.6951L35.4155 28.6488L35.093 29.0458L35.3732 29.4737C35.6927 29.9616 35.8942 30.4206 35.9977 30.9251L36.0968 31.4074L36.5841 31.4773L37.8577 31.6598L37.8698 31.6616L37.8819 31.6629C38.0543 31.6815 38.2184 31.8557 38.223 32.0468L38.165 33.8434L38.1646 33.8547V33.866C38.1646 34.0647 38.0011 34.2389 37.8234 34.2581L37.8233 34.2581L36.6741 34.3822L36.1956 34.4339L36.0726 34.8993C35.9121 35.5063 35.695 36.0424 35.3669 36.5858L35.1145 37.0037L35.4196 37.385L36.1442 38.2905L36.1525 38.3008L36.1611 38.3108C36.2716 38.4387 36.2609 38.6807 36.1378 38.8034L34.8057 40.1325C34.7791 40.159 34.7073 40.2006 34.5876 40.204C34.4655 40.2074 34.3816 40.1683 34.3527 40.1446L34.3527 40.1446L34.3456 40.1389L33.438 39.416L33.0297 39.0907L32.6015 39.3893C32.0969 39.741 31.4695 39.9571 30.8186 40.1355L30.362 40.2606L30.3082 40.731L30.1889 41.7742C30.1172 42.0377 29.9422 42.1625 29.7301 42.1625H27.9149C27.76 42.1625 27.6029 42.0459 27.5788 41.8232L27.5784 41.8191L27.4539 40.731L27.3989 40.2501L26.9295 40.1318C26.2824 39.9688 25.6798 39.6995 25.1209 39.3635Z" fill="#FBD4A8" stroke="#F48200" stroke-width="1.4"/>
<path d="M46.2237 49.9627L46.234 49.9637L46.2443 49.9645C49.024 50.1656 51.4939 48.1625 51.713 45.4078C51.9903 42.6546 49.9473 40.2161 47.1546 39.9383L47.147 39.9376L47.1394 39.937C44.4083 39.7254 41.9488 41.7513 41.6681 44.4847L41.6672 44.4934L41.6665 44.5021C41.4542 47.2387 43.488 49.683 46.2237 49.9627ZM55.713 43.1634L55.7932 43.6299L56.2561 43.7291L57.924 44.0868C57.9241 44.0868 57.9243 44.0868 57.9244 44.0868C58.1009 44.1251 58.2689 44.2818 58.2788 44.5797L58.0413 47.128C58.0207 47.298 57.844 47.4637 57.6471 47.4637H57.6346L57.6221 47.4641L55.9899 47.5225L55.5258 47.5391L55.3607 47.9731C55.0783 48.7151 54.7361 49.3908 54.2837 50.0677L54.021 50.4609L54.2877 50.8514L55.1852 52.1656C55.2467 52.2696 55.27 52.3912 55.2582 52.4944C55.2461 52.5994 55.2051 52.6463 55.1804 52.6641L55.163 52.6767L55.1465 52.6903L53.0897 54.3771L53.0811 54.3842L53.0726 54.3916C52.9247 54.5211 52.7139 54.5288 52.5509 54.396L51.4166 53.322L51.0709 52.9948L50.6395 53.1959C49.8989 53.5412 49.1027 53.8211 48.2575 53.9911L47.8041 54.0823L47.7101 54.5352L47.4109 55.9769C47.4108 55.9775 47.4106 55.978 47.4105 55.9786C47.3706 56.1619 47.2237 56.2994 46.9547 56.2736L46.9524 56.2734L44.354 56.0324L44.3218 56.0294H44.2894C44.238 56.0294 44.1772 56.0075 44.1195 55.9445C44.0594 55.8789 44.0232 55.7886 44.0232 55.6997V55.6862L44.0227 55.6726L43.9641 54.161L43.9464 53.7034L43.5199 53.5363C42.7869 53.2493 42.0545 52.8625 41.3885 52.3591L40.9818 52.0517L40.5644 52.3444L39.3932 53.166C39.2413 53.2422 39.1142 53.2562 39.0276 53.244C38.9458 53.2325 38.8719 53.1954 38.8052 53.1057L38.7955 53.0927L38.7852 53.0802L37.153 51.0866L37.1452 51.0771L37.1371 51.0679C37.0082 50.9213 37.0005 50.7135 37.1327 50.5518L38.2092 49.4202L38.5467 49.0653L38.3291 48.6266C38.0048 47.973 37.7842 47.2627 37.6699 46.4846L37.5976 45.9918L37.1082 45.8987L35.5574 45.6036C35.4394 45.5686 35.2651 45.4161 35.2551 45.1097L35.4926 42.5536C35.5155 42.3582 35.6509 42.2185 35.8868 42.2185H35.8998L35.9128 42.218L37.4864 42.1596L37.9482 42.1424L38.1139 41.711C38.3973 40.9733 38.7402 40.29 39.1916 39.6144L39.4457 39.2341L39.1995 38.8487L38.3504 37.5196L38.3352 37.4957L38.318 37.4732C38.2553 37.3905 38.2353 37.2952 38.2483 37.206C38.2621 37.1115 38.308 37.0501 38.347 37.0226L38.3684 37.0076L38.3886 36.9909L40.4453 35.2967L40.471 35.2755L40.4947 35.252C40.5669 35.1799 40.8033 35.1321 40.985 35.2746L42.1701 36.4569L42.5235 36.8095L42.9719 36.5902C43.6308 36.2681 44.4101 36.0416 45.2343 35.8643L45.672 35.7702L45.7701 35.3335L46.1357 33.7066C46.1358 33.7065 46.1358 33.7063 46.1359 33.7061C46.1862 33.4856 46.3585 33.3822 46.5272 33.4004L46.5408 33.4019L46.5544 33.4028L49.1929 33.5836C49.2427 33.5933 49.3317 33.633 49.4153 33.7239C49.5024 33.8188 49.5326 33.9137 49.5326 33.9751V33.9868L49.533 33.9985L49.5916 35.751L49.6067 36.2022L50.0239 36.3746C50.7208 36.6626 51.3781 36.9983 51.9129 37.4225L52.3117 37.7389L52.7356 37.457L54.1732 36.5008C54.376 36.3807 54.6131 36.4683 54.6752 36.5559L54.6932 36.5814L54.7135 36.6051L56.4116 38.5987L56.4115 38.5987L56.4148 38.6024C56.5508 38.7599 56.5536 38.9708 56.4231 39.1304L55.2294 40.3863L54.9157 40.7164L55.0902 41.1369C55.3785 41.8314 55.6004 42.5092 55.713 43.1634Z" fill="#FBD4A8" stroke="#F48200" stroke-width="1.4"/>
</svg>
