<svg width="80" height="80" viewBox="0 0 80 80" fill="none" xmlns="http://www.w3.org/2000/svg">
<path d="M38.2929 58.3006C38.6834 58.6911 39.3166 58.6911 39.7071 58.3006L46.0711 51.9366C46.4616 51.5461 46.4616 50.9129 46.0711 50.5224C45.6805 50.1319 45.0474 50.1319 44.6569 50.5224L39 56.1792L33.3431 50.5224C32.9526 50.1319 32.3195 50.1319 31.9289 50.5224C31.5384 50.9129 31.5384 51.5461 31.9289 51.9366L38.2929 58.3006ZM38 33.6631L38 57.5935L40 57.5935L40 33.6631L38 33.6631Z" fill="#FBD4A8"/>
<path d="M21.8214 40.5764L22.1957 40.2978L22.0826 39.8451C21.9509 39.3183 21.8822 38.7762 21.8822 38.2115C21.8822 34.2249 25.4135 30.8953 29.8939 30.8953C30.6251 30.8953 31.3272 30.9867 32.0013 31.154L32.5001 31.2777L32.7676 30.8388C34.0642 28.7113 36.5577 27.2537 39.4465 27.2537C43.5644 27.2537 46.8492 30.2024 47.0931 33.8085L47.1454 34.5811L47.9087 34.4514C48.2859 34.3873 48.67 34.3508 49.0559 34.3508C52.2587 34.3508 54.8133 36.5641 55.151 39.3148L55.2249 39.9174L55.8319 39.9294C57.5688 39.9637 58.8694 41.2534 58.8694 42.7257C58.8694 44.2174 57.5374 45.5277 55.7636 45.5277H23.8058C22.0312 45.5277 20.7 44.2225 20.7 42.7257C20.7 41.874 21.1218 41.0971 21.8214 40.5764Z" fill="#FBD4A8" stroke="#F48200" stroke-width="1.4"/>
<path d="M73.641 59.4226L40 78.8453L6.35898 59.4226V20.5774L40 1.1547L73.641 20.5774V59.4226Z" stroke="#F48200" stroke-width="2"/>
</svg>
