<svg width="80" height="80" viewBox="0 0 80 80" fill="none" xmlns="http://www.w3.org/2000/svg">
<path d="M73.641 59.4226L40 78.8453L6.35898 59.4226V20.5774L40 1.1547L73.641 20.5774V59.4226Z" stroke="#F48200" stroke-width="2"/>
<rect x="28" y="31" width="25" height="7" fill="#FBD4A8"/>
<rect x="37" y="47" width="16" height="5" fill="#FBD4A8"/>
<rect x="28" y="40" width="7" height="12" fill="#FBD4A8"/>
<rect x="37" y="40" width="16" height="5" fill="#FBD4A8"/>
<path d="M26.9994 26L40.4994 25.5L53.9994 26L54.2989 29.5H26.5L26.9994 26Z" fill="#FBD4A8"/>
<path d="M52.6094 24.9688H28.3906C27.7485 24.9695 27.133 25.2249 26.679 25.679C26.2249 26.133 25.9695 26.7485 25.9688 27.3906V51.6094C25.9695 52.2515 26.2249 52.867 26.679 53.321C27.133 53.7751 27.7485 54.0305 28.3906 54.0312H52.6094C53.2515 54.0305 53.867 53.7751 54.321 53.321C54.7751 52.867 55.0305 52.2515 55.0312 51.6094V27.3906C55.0305 26.7485 54.7751 26.133 54.321 25.679C53.867 25.2249 53.2515 24.9695 52.6094 24.9688ZM28.3906 25.9375H52.6094C52.9948 25.9375 53.3644 26.0906 53.6369 26.3631C53.9094 26.6356 54.0625 27.0052 54.0625 27.3906V28.8438H26.9375V27.3906C26.9375 27.0052 27.0906 26.6356 27.3631 26.3631C27.6356 26.0906 28.0052 25.9375 28.3906 25.9375ZM52.6094 53.0625H28.3906C28.0052 53.0625 27.6356 52.9094 27.3631 52.6369C27.0906 52.3644 26.9375 51.9948 26.9375 51.6094V29.8125H54.0625V51.6094C54.0625 51.9948 53.9094 52.3644 53.6369 52.6369C53.3644 52.9094 52.9948 53.0625 52.6094 53.0625Z" fill="#F48200"/>
<path d="M27.9062 38.5312H53.0938V30.7812H27.9062V38.5312ZM28.875 31.75H52.125V37.5625H28.875V31.75Z" fill="#F48200"/>
<path d="M27.9062 52.0938H35.6562V39.5H27.9062V52.0938ZM28.875 40.4688H34.6875V51.125H28.875V40.4688Z" fill="#F48200"/>
<path d="M36.625 45.3125H53.0938V39.5H36.625V45.3125ZM37.5938 40.4688H52.125V44.3438H37.5938V40.4688Z" fill="#F48200"/>
<path d="M53.0938 52.0938H36.625V46.2812H53.0938V52.0938ZM37.5938 51.125H52.125V47.25H37.5938V51.125Z" fill="#F48200"/>
</svg>
