<svg width="80" height="80" viewBox="0 0 80 80" fill="none" xmlns="http://www.w3.org/2000/svg">
<path d="M73.641 59.4226L40 78.8453L6.35898 59.4226V20.5774L40 1.1547L73.641 20.5774V59.4226Z" stroke="#F48200" stroke-width="2"/>
<g clip-path="url(#clip0_1032_2)">
<path d="M44 41.5L41 44L52.5 55L55 52.5L44 41.5Z" fill="#FBD4A8"/>
<path d="M42.9991 34.75C42.9991 39.5825 38.5816 43.5 33.7491 43.5C28.9166 43.5 25.5 39.3325 25.5 34.5C25.5 29.6675 29.4166 26 34.2491 26C39.0816 26 42.9991 29.9175 42.9991 34.75Z" fill="#FBD4A8"/>
<path d="M55.8188 52.1443L46.3917 42.7172C46.3887 42.7141 46.3856 42.7111 46.3825 42.708L44.4358 40.7612C44.1942 40.5196 43.8025 40.5196 43.561 40.7612L42.5985 41.7237L41.4419 40.567C44.672 36.8843 44.5316 31.2573 41.0194 27.7444L41.0193 27.7443C37.3594 24.0851 31.4043 24.0853 27.7444 27.7445C24.0852 31.4043 24.0852 37.3594 27.7445 41.0193C29.5744 42.8489 31.9781 43.7637 34.3819 43.7637C36.5925 43.7637 38.8027 42.9893 40.5671 41.4419L41.7236 42.5984L40.7612 43.5609C40.5196 43.8025 40.5196 44.194 40.7611 44.4356L42.7121 46.3872C42.7178 46.3928 42.7235 46.3984 42.7293 46.4038L52.1443 55.8188C52.2603 55.9349 52.4177 56 52.5817 56C52.7457 56 52.9031 55.9348 53.0191 55.8188L55.8188 53.0192C55.9348 52.9031 55.9999 52.7458 55.9999 52.5818C55.9999 52.4177 55.9348 52.2603 55.8188 52.1443ZM40.1448 40.1442C40.1447 40.1442 40.1446 40.1443 40.1445 40.1444C40.1445 40.1445 40.1444 40.1446 40.1443 40.1447C36.9667 43.3214 31.7967 43.3212 28.6192 40.1445C25.4423 36.967 25.4423 31.7967 28.6192 28.6192C30.2079 27.0307 32.2949 26.2364 34.3819 26.2364C36.4688 26.2364 38.5557 27.0307 40.1444 28.6191C43.3214 31.7966 43.3214 36.9667 40.1448 40.1442ZM42.0734 43.9983L43.9983 42.0733L45.0752 43.1501L43.15 45.0753L42.0734 43.9983ZM52.5817 54.5066L44.025 45.9499L45.9499 44.025L54.5066 52.5816L52.5817 54.5066Z" fill="#F48200"/>
<path d="M39.0708 29.6941C36.4865 27.1098 32.2811 27.1097 29.696 29.6941C27.1117 32.2791 27.1118 36.4845 29.696 39.0688C30.9482 40.321 32.6129 41.0106 34.3836 41.0106C36.1543 41.0106 37.8189 40.3211 39.0707 39.0689C40.3229 37.817 41.0126 36.1524 41.0126 34.3817C41.0126 32.611 40.323 30.9462 39.0708 29.6941ZM38.196 38.194C37.1777 39.2126 35.8239 39.7735 34.3836 39.7735C32.9435 39.7735 31.5894 39.2126 30.5708 38.194C28.4688 36.0921 28.4689 32.6715 30.5708 30.569C31.6222 29.5178 33.0027 28.9924 34.3836 28.9924C35.7642 28.9924 37.1451 29.5181 38.196 30.5689C39.2145 31.5874 39.7755 32.9415 39.7755 34.3817C39.7755 35.8218 39.2146 37.1756 38.196 38.194Z" fill="#F48200"/>
<circle cx="34.5" cy="34.5" r="5.5" fill="white"/>
</g>
<defs>
<clipPath id="clip0_1032_2">
<rect width="31" height="31" fill="white" transform="translate(25 25)"/>
</clipPath>
</defs>
</svg>
