<svg width="80" height="80" viewBox="0 0 80 80" fill="none" xmlns="http://www.w3.org/2000/svg">
<path d="M73.641 59.4226L40 78.8453L6.35898 59.4226V20.5774L40 1.1547L73.641 20.5774V59.4226Z" stroke="#F48200" stroke-width="2"/>
<circle cx="39.5" cy="39.5" r="11.5" fill="#FBD4A8"/>
<path d="M50.4602 28.5399C47.5326 25.6123 43.6402 24 39.5 24C35.3598 24 31.4674 25.6123 28.5398 28.5399C25.6122 31.4674 24 35.3598 24 39.5C24 43.6402 25.6122 47.5326 28.5398 50.4601C31.4674 53.3876 35.3598 55 39.5 55C43.6402 55 47.5326 53.3877 50.4602 50.4601C53.3878 47.5326 55 43.6402 55 39.5C55 35.3598 53.3878 31.4674 50.4602 28.5399ZM39.5 53.1657C31.9648 53.1657 25.8343 47.0352 25.8343 39.5C25.8343 31.9648 31.9648 25.8343 39.5 25.8343C47.0352 25.8343 53.1657 31.9648 53.1657 39.5C53.1657 47.0352 47.0352 53.1657 39.5 53.1657Z" fill="#F48200"/>
<path d="M39.5007 27.0425C39.4668 27.0425 39.4332 27.0435 39.3994 27.0438C39.3908 27.0435 39.3825 27.0425 39.3739 27.0425C39.3595 27.0425 39.3455 27.0439 39.3313 27.0446C32.5587 27.1354 27.0738 32.6571 27.0437 39.444C27.0436 39.4488 27.043 39.4534 27.043 39.4581C27.043 39.4609 27.0434 39.4637 27.0434 39.4665C27.0434 39.4778 27.043 39.4889 27.043 39.5001C27.043 46.3692 32.6314 51.9577 39.5006 51.9577C46.3698 51.9577 51.9583 46.3693 51.9583 39.5001C51.9583 32.631 46.3699 27.0425 39.5007 27.0425ZM40.4178 50.0834V48.9207C40.4178 48.4142 40.0072 48.0036 39.5007 48.0036C38.9941 48.0036 38.5835 48.4142 38.5835 48.9207V50.0834C33.442 49.6416 29.3353 45.5224 28.9136 40.3752H29.9111C30.4177 40.3752 30.8283 39.9646 30.8283 39.458C30.8283 38.9515 30.4177 38.5409 29.9111 38.5409H28.9211C29.3766 33.4753 33.4026 29.4233 38.4568 28.9281V29.8686C38.4568 30.3752 38.8674 30.7858 39.3739 30.7858C39.8805 30.7858 40.2911 30.3752 40.2911 29.8686V28.9062C45.4212 29.2853 49.5498 33.3236 50.0689 38.4142H48.9634C48.4569 38.4142 48.0463 38.8248 48.0463 39.3314C48.0463 39.8379 48.4569 40.2485 48.9634 40.2485H50.0973C49.7332 45.4546 45.6015 49.638 40.4178 50.0834Z" fill="#F48200"/>
<path d="M43.2136 35.7872C42.8555 35.429 42.2748 35.429 41.9167 35.7872L39.501 38.2029L34.8157 33.5177C34.4575 33.1595 33.8768 33.1595 33.5186 33.5177C33.1605 33.8759 33.1605 34.4565 33.5186 34.8147L38.8524 40.1485C39.0244 40.3205 39.2576 40.4171 39.5009 40.4171C39.7441 40.4171 39.9775 40.3204 40.1494 40.1485L43.2136 37.0842C43.5718 36.7261 43.5718 36.1454 43.2136 35.7872Z" fill="#F48200"/>
</svg>
