<svg width="80" height="80" viewBox="0 0 80 80" fill="none" xmlns="http://www.w3.org/2000/svg">
<path d="M73.641 59.4226L40 78.8453L6.35898 59.4226V20.5774L40 1.1547L73.641 20.5774V59.4226Z" stroke="#F48200" stroke-width="2"/>
<g clip-path="url(#clip0_1032_4)">
<rect x="36" y="51" width="7" height="3" fill="#FBD4A8"/>
<path d="M34 33L39 31L41 31.5L46 34L48 39.5L46.5 44.5L43.5 47L42.5 50.5H36.5L36 49L34.5 47L31.5 43V38L34 33Z" fill="#FBD4A8"/>
<path d="M41.4362 54.9997H37.5612C36.657 54.9997 35.6237 54.2247 35.6237 52.6747V49.9622C35.6237 48.6705 34.9779 47.508 33.9445 46.6038C31.6195 44.7955 30.457 42.2122 30.457 39.3705C30.5862 34.4622 34.5904 30.5872 39.3695 30.458C41.8237 30.458 44.1487 31.3622 45.8279 33.0413C47.507 34.7205 48.5404 37.0455 48.5404 39.4997C48.5404 42.2122 47.3779 44.7955 45.182 46.4747C44.0195 47.3788 43.3737 48.7997 43.3737 50.0913V53.0622C43.3737 54.0955 42.4695 54.9997 41.4362 54.9997ZM39.4987 31.7497C35.3654 31.7497 31.8779 35.2372 31.7487 39.3705C31.7487 41.8247 32.782 44.1497 34.7195 45.5705C36.1404 46.733 36.9154 48.283 36.9154 49.9622V52.6747C36.9154 52.933 36.9154 53.708 37.5612 53.708H41.4362C41.8237 53.708 42.082 53.4497 42.082 53.0622V50.0913C42.082 48.4122 42.9862 46.6038 44.407 45.4413C46.2154 44.0205 47.2487 41.8247 47.2487 39.4997C47.2487 37.433 46.4737 35.4955 44.9237 33.9455C43.5029 32.5247 41.5654 31.7497 39.4987 31.7497Z" fill="#F48200"/>
<path d="M42.7292 51.1249H36.2708C35.8833 51.1249 35.625 50.8666 35.625 50.4791C35.625 50.0916 35.8833 49.8333 36.2708 49.8333H42.7292C43.1167 49.8333 43.375 50.0916 43.375 50.4791C43.375 50.8666 43.1167 51.1249 42.7292 51.1249Z" fill="#F48200"/>
<path d="M39.5013 27.875C39.1138 27.875 38.8555 27.6167 38.8555 27.2292V24.6458C38.8555 24.2583 39.1138 24 39.5013 24C39.8888 24 40.1471 24.2583 40.1471 24.6458V27.2292C40.1471 27.6167 39.8888 27.875 39.5013 27.875Z" fill="#F48200"/>
<path d="M48.1557 31.492C48.0266 31.492 47.7682 31.492 47.6391 31.3628C47.3807 31.1045 47.3807 30.717 47.6391 30.4586L49.4474 28.6503C49.7057 28.392 50.0932 28.392 50.3516 28.6503C50.6099 28.9086 50.6099 29.2961 50.3516 29.5545L48.5432 31.3628C48.5432 31.3628 48.2849 31.492 48.1557 31.492Z" fill="#F48200"/>
<path d="M54.3542 40.1459H51.7708C51.3833 40.1459 51.125 39.8876 51.125 39.5001C51.125 39.1126 51.3833 38.8542 51.7708 38.8542H54.3542C54.7417 38.8542 55 39.1126 55 39.5001C55 39.8876 54.7417 40.1459 54.3542 40.1459Z" fill="#F48200"/>
<path d="M49.9641 50.6087C49.8349 50.6087 49.5766 50.6087 49.4474 50.4795L47.6391 48.6712C47.3807 48.4128 47.3807 48.0253 47.6391 47.767C47.8974 47.5087 48.2849 47.5087 48.5432 47.767L50.3516 49.5753C50.6099 49.8337 50.6099 50.2212 50.3516 50.4795C50.3516 50.6087 50.2224 50.6087 49.9641 50.6087Z" fill="#F48200"/>
<path d="M29.0385 50.6087C28.9094 50.6087 28.651 50.6087 28.5219 50.4795C28.2635 50.2212 28.2635 49.8337 28.5219 49.5753L30.3302 47.767C30.5885 47.5087 30.976 47.5087 31.2344 47.767C31.4927 48.0253 31.4927 48.4128 31.2344 48.6712L29.426 50.4795C29.2969 50.6087 29.1677 50.6087 29.0385 50.6087Z" fill="#F48200"/>
<path d="M27.2292 40.1459H24.6458C24.2583 40.1459 24 39.8876 24 39.5001C24 39.1126 24.2583 38.8542 24.6458 38.8542H27.2292C27.6167 38.8542 27.875 39.1126 27.875 39.5001C27.875 39.8876 27.6167 40.1459 27.2292 40.1459Z" fill="#F48200"/>
<path d="M30.8469 31.4917C30.7177 31.4917 30.4594 31.4917 30.3302 31.3626L28.5219 29.4251C28.2635 29.1667 28.2635 28.7792 28.5219 28.5209C28.7802 28.2626 29.1677 28.2626 29.426 28.5209L31.2344 30.3292C31.4927 30.5876 31.4927 30.9751 31.2344 31.2334C31.1052 31.3626 30.976 31.4917 30.8469 31.4917Z" fill="#F48200"/>
<path d="M44.668 40.1458C44.2805 40.1458 44.0221 39.8875 44.0221 39.5C44.0221 37.0458 41.9555 34.9792 39.5013 34.9792C39.1138 34.9792 38.8555 34.7208 38.8555 34.3333C38.8555 33.9458 39.1138 33.6875 39.5013 33.6875C42.7305 33.6875 45.3138 36.2708 45.3138 39.5C45.3138 39.8875 45.0555 40.1458 44.668 40.1458Z" fill="#F48200"/>
</g>
<defs>
<clipPath id="clip0_1032_4">
<rect width="31" height="31" fill="white" transform="translate(24 24)"/>
</clipPath>
</defs>
</svg>
