<svg width="64" height="64" viewBox="0 0 64 64" fill="none" xmlns="http://www.w3.org/2000/svg">
<path d="M58.7128 47.4226L32 62.8453L5.28719 47.4226V16.5774L32 1.1547L58.7128 16.5774V47.4226Z" stroke="#F48200" stroke-width="2"/>
<path d="M32 17C27.8594 17 24.3242 18.4648 21.3945 21.3945C18.4648 24.3242 17 27.8594 17 32C17 36.1406 18.4648 39.6758 21.3945 42.6055C24.3242 45.5352 27.8594 47 32 47C36.1406 47 39.6758 45.5352 42.6055 42.6055C45.5352 39.6758 47 36.1406 47 32C47 27.8594 45.5352 24.3242 42.6055 21.3945C39.6758 18.4648 36.1406 17 32 17ZM32 44.4805C28.5625 44.4805 25.623 43.2598 23.1816 40.8184C20.7402 38.377 19.5195 35.4375 19.5195 32C19.5195 28.5625 20.7402 25.623 23.1816 23.1816C25.623 20.7402 28.5625 19.5195 32 19.5195C35.4375 19.5195 38.377 20.7402 40.8184 23.1816C43.2598 25.623 44.4805 28.5625 44.4805 32C44.4805 35.4375 43.2598 38.377 40.8184 40.8184C38.377 43.2598 35.4375 44.4805 32 44.4805ZM32 23.2695C29.5781 23.2695 27.5176 24.1191 25.8184 25.8184C24.1191 27.5176 23.2695 29.5781 23.2695 32C23.2695 34.4219 24.1191 36.4824 25.8184 38.1816C27.5176 39.8809 29.5781 40.7305 32 40.7305C34.4219 40.7305 36.4824 39.8809 38.1816 38.1816C39.8809 36.4824 40.7305 34.4219 40.7305 32C40.7305 29.5781 39.8809 27.5176 38.1816 25.8184C36.4824 24.1191 34.4219 23.2695 32 23.2695ZM32 38.2695C30.2422 38.2695 28.7578 37.6641 27.5469 36.4531C26.3359 35.2422 25.7305 33.7578 25.7305 32C25.7305 30.2422 26.3359 28.7578 27.5469 27.5469C28.7578 26.3359 30.2422 25.7305 32 25.7305C33.7578 25.7305 35.2422 26.3359 36.4531 27.5469C37.6641 28.7578 38.2695 30.2422 38.2695 32C38.2695 33.7578 37.6641 35.2422 36.4531 36.4531C35.2422 37.6641 33.7578 38.2695 32 38.2695ZM34.5195 32C34.5195 32.7031 34.2754 33.2988 33.7871 33.7871C33.2988 34.2754 32.7031 34.5195 32 34.5195C31.2969 34.5195 30.7012 34.2754 30.2129 33.7871C29.7246 33.2988 29.4805 32.7031 29.4805 32C29.4805 31.2969 29.7246 30.7012 30.2129 30.2129C30.7012 29.7246 31.2969 29.4805 32 29.4805C32.7031 29.4805 33.2988 29.7246 33.7871 30.2129C34.2754 30.7012 34.5195 31.2969 34.5195 32Z" fill="#F48200"/>
</svg>
