<svg width="64" height="64" viewBox="0 0 64 64" fill="none" xmlns="http://www.w3.org/2000/svg">
<path d="M58.7128 47.4226L32 62.8453L5.28719 47.4226V16.5774L32 1.1547L58.7128 16.5774V47.4226Z" stroke="#F48200" stroke-width="2"/>
<g clip-path="url(#clip0_366_3594)">
<path d="M46 28L32 46L34.76 35.36L35.6267 32L36.6667 28H46Z" fill="#FBD4A8"/>
<path d="M32 46L18 28H27.3333L32 46Z" fill="#FBD4A8"/>
<path d="M27.3333 28.0003H18L22.6667 20.667L27.3333 28.0003Z" fill="#FBEEDF"/>
<path d="M46.0013 27.9993H36.668L41.3346 20.666L46.0013 27.9993Z" fill="#FBEEDF"/>
<path d="M32.0013 20.666L27.3346 27.9993L22.668 20.666H32.0013Z" fill="#FBD4A8"/>
<path d="M36.6654 28L35.6254 32L34.7587 35.36L31.9987 46L27.332 28H36.6654Z" fill="#FBEEDF"/>
<path d="M34.6667 28L33.6267 32L32.76 35.36L31 42.144L32 46L34.76 35.36L35.6267 32L36.6667 28H34.6667Z" fill="#F0C390"/>
<path d="M36.6654 27.9993H27.332L31.9987 20.666L36.6654 27.9993Z" fill="#FBEEDF"/>
<path d="M41.3333 20.667L36.6667 28.0003L32 20.667H41.3333Z" fill="#FBD4A8"/>
<path d="M33 44.7143L20 28.0003L24.6667 20.667H22.6667L18 28.0003L32 46.0003L33 44.7143Z" fill="white"/>
<path d="M19.5469 31.0684L20.5989 30.2497L23.8735 34.4577L22.8215 35.2764L19.5469 31.0684Z" fill="white"/>
<path d="M21.3021 32.245C21.0886 32.4102 20.9959 32.6878 21.0671 32.9482C21.1384 33.2085 21.3596 33.4002 21.6275 33.4337C21.8953 33.4672 22.1569 33.3358 22.2901 33.101C22.4232 32.8662 22.4016 32.5743 22.2354 32.3616C22.0095 32.0725 21.5923 32.0204 21.3021 32.245Z" fill="#F48200"/>
<path d="M12.6667 32.6663H14.6667C15.0349 32.6663 15.3333 32.3679 15.3333 31.9997C15.3333 31.6315 15.0349 31.333 14.6667 31.333H12.6667C12.2985 31.333 12 31.6315 12 31.9997C12 32.3679 12.2985 32.6663 12.6667 32.6663Z" fill="#F48200"/>
<path d="M49.3346 32.6673H51.3346C51.7028 32.6673 52.0013 32.3688 52.0013 32.0007C52.0013 31.6325 51.7028 31.334 51.3346 31.334H49.3346C48.9664 31.334 48.668 31.6325 48.668 32.0007C48.668 32.3688 48.9664 32.6673 49.3346 32.6673Z" fill="#F48200"/>
<path d="M32.6654 51.3337V49.3337C32.6654 48.9655 32.3669 48.667 31.9987 48.667C31.6305 48.667 31.332 48.9655 31.332 49.3337V51.3337C31.332 51.7018 31.6305 52.0003 31.9987 52.0003C32.3669 52.0003 32.6654 51.7018 32.6654 51.3337Z" fill="#F48200"/>
<path d="M31.9987 15.3333C32.3669 15.3333 32.6654 15.0349 32.6654 14.6667V12.6667C32.6654 12.2985 32.3669 12 31.9987 12C31.6305 12 31.332 12.2985 31.332 12.6667V14.6667C31.332 15.0349 31.6305 15.3333 31.9987 15.3333Z" fill="#F48200"/>
<path d="M19.2737 43.7848L17.8597 45.1995C17.6796 45.3652 17.6049 45.6163 17.6649 45.8536C17.725 46.0909 17.9103 46.2762 18.1476 46.3363C18.3849 46.3963 18.636 46.3216 18.8017 46.1415L20.2157 44.7275C20.4684 44.4659 20.4648 44.0501 20.2076 43.7929C19.9505 43.5358 19.5347 43.5321 19.2731 43.7848H19.2737Z" fill="#F48200"/>
<path d="M44.2567 20.4098C44.4335 20.4098 44.603 20.3395 44.728 20.2145L46.142 18.7998C46.3221 18.634 46.3969 18.3829 46.3368 18.1456C46.2767 17.9083 46.0915 17.7231 45.8542 17.663C45.6169 17.6029 45.3658 17.6777 45.2 17.8578L43.786 19.2718C43.5954 19.4625 43.5384 19.7491 43.6416 19.9982C43.7447 20.2473 43.9878 20.4097 44.2574 20.4098H44.2567Z" fill="#F48200"/>
<path d="M45.6706 46.3378C45.9402 46.3377 46.1832 46.1753 46.2864 45.9262C46.3896 45.6771 46.3326 45.3904 46.142 45.1998L44.728 43.7858C44.4664 43.5331 44.0506 43.5367 43.7934 43.7939C43.5363 44.0511 43.5326 44.4669 43.7853 44.7284L45.2 46.1424C45.3248 46.2673 45.4941 46.3376 45.6706 46.3378Z" fill="#F48200"/>
<path d="M19.2737 20.2145C19.5353 20.4671 19.9511 20.4635 20.2083 20.2063C20.4654 19.9492 20.4691 19.5334 20.2164 19.2718L18.8017 17.8578C18.636 17.6777 18.3849 17.6029 18.1476 17.663C17.9103 17.7231 17.725 17.9083 17.6649 18.1456C17.6049 18.3829 17.6796 18.634 17.8597 18.7998L19.2737 20.2145Z" fill="#F48200"/>
<path d="M19.5464 31.076C19.6906 31.2699 19.9285 31.3707 20.1681 31.3392C20.4077 31.3078 20.6116 31.1492 20.7009 30.9246C20.7902 30.7001 20.751 30.4447 20.5984 30.2573L19.3618 28.6667H26.8164L30.5431 43.0433L23.8764 34.4673C23.7302 34.2793 23.4947 34.1836 23.2588 34.2162C23.0228 34.2488 22.8222 34.4048 22.7324 34.6255C22.6427 34.8462 22.6775 35.098 22.8238 35.286L31.4724 46.4093L31.4771 46.4053C31.6011 46.5691 31.7944 46.6657 31.9998 46.6665C32.2052 46.6673 32.3992 46.5722 32.5244 46.4093L46.5244 28.4093C46.6807 28.2084 46.7089 27.936 46.5971 27.7073C46.5847 27.6858 46.5709 27.6651 46.5558 27.6453H46.5611L41.8944 20.312C41.7689 20.1252 41.5567 20.0154 41.3318 20.0207V20H22.6651V20.0207C22.4407 20.0146 22.2287 20.1232 22.1024 20.3087L17.4358 27.642H17.4411C17.4259 27.6617 17.4121 27.6824 17.3998 27.704C17.288 27.9327 17.3162 28.2051 17.4724 28.406L19.5464 31.076ZM33.2131 21.3333H40.1171L36.6651 26.758L33.2131 21.3333ZM35.4504 27.3333H28.5464L31.9984 21.9087L35.4504 27.3333ZM27.3318 26.758L23.8798 21.3333H30.7838L27.3318 26.758ZM33.4538 43.0427L35.4038 35.5253C35.4738 35.2914 35.4103 35.0378 35.2383 34.8645C35.0662 34.6912 34.8132 34.6258 34.5787 34.6941C34.3442 34.7624 34.1658 34.9534 34.1138 35.192L31.9984 43.344L28.1931 28.6667H35.8031L34.9804 31.8327C34.9104 32.0666 34.9739 32.3202 35.1459 32.4935C35.318 32.6668 35.571 32.7322 35.8055 32.6639C36.04 32.5956 36.2184 32.4046 36.2704 32.166L37.1804 28.6667H44.6351L33.4538 43.0427ZM44.7838 27.3333H37.8798L41.3318 21.9087L44.7838 27.3333ZM22.6651 21.9087L26.1171 27.3333H19.2131L22.6651 21.9087Z" fill="#F48200"/>
</g>
<defs>
<clipPath id="clip0_366_3594">
<rect width="40" height="40" fill="white" transform="translate(12 12)"/>
</clipPath>
</defs>
</svg>
