<svg width="64" height="64" viewBox="0 0 64 64" fill="none" xmlns="http://www.w3.org/2000/svg">
<path d="M58.7128 47.4226L32 62.8453L5.28719 47.4226V16.5774L32 1.1547L58.7128 16.5774V47.4226Z" stroke="#F48200" stroke-width="2"/>
<path d="M13.5441 32.0219C13.54 32.0143 13.5361 32.007 13.5323 32C13.5361 31.993 13.54 31.9857 13.5441 31.9781C13.5923 31.8885 13.665 31.7564 13.7622 31.5877C13.9565 31.2502 14.2487 30.7669 14.6383 30.1861C15.4177 29.0243 16.5853 27.4753 18.1375 25.927C21.2434 22.8288 25.8712 19.75 32 19.75C38.1288 19.75 42.7566 22.8288 45.8625 25.927C47.4147 27.4753 48.5823 29.0243 49.3617 30.1861C49.7513 30.7669 50.0435 31.2502 50.2378 31.5877C50.335 31.7564 50.4077 31.8885 50.4559 31.9781C50.46 31.9857 50.4639 31.993 50.4677 32C50.4639 32.007 50.46 32.0143 50.4559 32.0219C50.4077 32.1115 50.335 32.2436 50.2378 32.4123C50.0435 32.7498 49.7513 33.2331 49.3617 33.8139C48.5823 34.9757 47.4147 36.5247 45.8625 38.073C42.7566 41.1712 38.1288 44.25 32 44.25C25.8712 44.25 21.2434 41.1712 18.1375 38.073C16.5853 36.5247 15.4177 34.9757 14.6383 33.8139C14.2487 33.2331 13.9565 32.7498 13.7622 32.4123C13.665 32.2436 13.5923 32.1115 13.5441 32.0219Z" fill="#F48200" stroke="white" stroke-width="0.5"/>
<path d="M47.625 32C47.625 32 42.375 42.4375 32 42.4375C21.625 42.4375 16.375 32 16.375 32C16.375 32 21.625 21.5625 32 21.5625C42.375 21.5625 47.625 32 47.625 32Z" fill="white"/>
<path d="M40.3752 32C40.3752 36.6875 36.6252 40.4375 31.9377 40.4375C27.2502 40.4375 23.5002 36.6875 23.5002 32C23.5002 27.3125 27.2502 23.5625 31.9377 23.5625C36.6252 23.5625 40.3752 27.3125 40.3752 32Z" fill="#FBD4A8"/>
<path d="M36.6252 32C36.6252 34.5625 34.5002 36.6875 31.9377 36.6875C29.3752 36.6875 27.2502 34.5625 27.2502 32C27.2502 29.4375 29.3752 27.3125 31.9377 27.3125C34.5002 27.3125 36.6252 29.4375 36.6252 32Z" fill="#F48200"/>
</svg>
