<svg width="80" height="80" viewBox="0 0 80 80" fill="none" xmlns="http://www.w3.org/2000/svg">
<path d="M73.641 59.4226L40 78.8453L6.35898 59.4226V20.5774L40 1.1547L73.641 20.5774V59.4226Z" stroke="#F48200" stroke-width="2"/>
<path d="M32.9629 34.7703C34.3144 34.7703 35.4141 33.7051 35.4141 32.3961C35.4141 31.3825 34.7548 30.516 33.83 30.1758C34.1454 28.5242 34.9567 27.0284 36.1953 25.8288C39.0323 23.081 43.5339 22.6129 46.8998 24.7159C47.2343 24.9249 47.6807 24.8316 47.8964 24.5075C48.1124 24.1835 48.0161 23.7514 47.6815 23.5422C45.7874 22.359 43.5024 21.8284 41.2477 22.0488C38.9605 22.2722 36.8041 23.264 35.1756 24.8411C33.6867 26.2832 32.7258 28.0925 32.3816 30.0899C31.3098 30.3433 30.5117 31.2808 30.5117 32.3961C30.5117 33.7051 31.6111 34.7703 32.9629 34.7703ZM32.9629 31.4185C33.5194 31.4185 33.9722 31.8569 33.9722 32.3961C33.9722 32.9351 33.5194 33.3737 32.9629 33.3737C32.4061 33.3737 31.9536 32.9351 31.9536 32.3961C31.9536 31.8569 32.4061 31.4185 32.9629 31.4185Z" fill="#F48200"/>
<path d="M41.8661 27.2021L37.6094 29.3305V34.5332L41.8661 37.1346L46.3594 34.5332V29.3305L41.8661 27.2021Z" fill="#FBD4A8"/>
<path d="M37.3022 38.9313C36.9765 38.7062 36.5327 38.7919 36.3112 39.1225C36.0895 39.4532 36.1739 39.9035 36.4996 40.1286C38.1875 41.2948 40.1272 41.8653 42.0578 41.8653C44.616 41.8653 47.1578 40.8632 49.0736 38.9183C50.5457 37.4237 51.4965 35.5468 51.8372 33.4757C52.8977 33.213 53.6875 32.2405 53.6875 31.084C53.6875 29.7266 52.5996 28.6221 51.2627 28.6221C49.9255 28.6221 48.8379 29.7266 48.8379 31.084C48.8379 32.135 49.4901 33.0339 50.4052 33.3864C50.093 35.0993 49.2895 36.651 48.0652 37.8941C45.1874 40.8159 40.6607 41.2521 37.3022 38.9313ZM51.2627 30.0703C51.8132 30.0703 52.2612 30.5251 52.2612 31.084C52.2612 31.6429 51.8132 32.0977 51.2627 32.0977C50.7122 32.0977 50.2643 31.6429 50.2643 31.084C50.2643 30.5251 50.7122 30.0703 51.2627 30.0703Z" fill="#F48200"/>
<path d="M41.7494 37.5136C41.8576 37.5768 41.9784 37.6082 42.0992 37.6082C42.2199 37.6082 42.3407 37.5768 42.4489 37.5136L46.7155 35.0286C46.9319 34.9027 47.0652 34.6695 47.0652 34.4176V29.4476C47.0652 29.1954 46.9319 28.9625 46.7155 28.8365L42.4489 26.3515C42.2325 26.2253 41.9658 26.2253 41.7494 26.3515L37.4825 28.8365C37.2661 28.9625 37.1328 29.1954 37.1328 29.4476V34.4176C37.1328 34.6695 37.2661 34.9027 37.4825 35.0286L41.7494 37.5136ZM38.532 30.6697L41.3997 32.3399V35.6805L38.532 34.0102V30.6697ZM42.7986 35.6805V32.3399L45.6663 30.6697V34.0102L42.7986 35.6805ZM42.0992 27.7773L44.9669 29.4476L42.0992 31.1178L39.2314 29.4476L42.0992 27.7773Z" fill="#F48200"/>
<path d="M33.5876 43.7568L28.1484 46.8311V47.7771L35.0065 53.9257L45.8849 53.4528L48.7228 52.0338L56.2903 44.7028L55.5809 42.3379L53.216 42.8109L47.0674 47.7771L45.8849 45.8852L36.662 43.2838L33.5876 43.7568Z" fill="#FBD4A8"/>
<path d="M22.5 49.5L26 46L35 54.5L31.5 58L22.5 49.5Z" fill="#FBD4A8"/>
<path d="M56.9959 43.8801C56.9525 43.0963 56.5697 42.3789 55.9452 41.9112C54.9349 41.1544 53.5331 41.2334 52.6121 42.0989L47.1938 47.1927C47.1838 46.0882 46.4555 45.1111 45.3794 44.8098L38.9661 43.0134C36.7182 42.3839 34.347 42.6481 32.2896 43.757L27.6695 46.2475L27.0358 45.6079C26.6004 45.1684 25.8921 45.1684 25.4567 45.6079L22.2088 48.8864C21.9304 49.1675 21.9304 49.623 22.2088 49.9041C22.4872 50.1851 22.9385 50.1851 23.2166 49.9041L26.2463 46.8459L33.9486 54.6212L31.4023 57.1915C31.1242 57.4725 31.1242 57.9281 31.4023 58.2088C31.5415 58.3493 31.7239 58.4196 31.9062 58.4196C32.0886 58.4196 32.2712 58.3493 32.4104 58.2088L35.175 55.4179C35.4144 55.1762 35.5214 54.8513 35.4974 54.5346H43.4409C45.7603 54.5346 47.9728 53.6561 49.6705 52.0607L56.1685 45.9544C56.7376 45.4199 57.0391 44.6636 56.9959 43.8801ZM55.1971 44.9014L48.6991 51.0074C47.2662 52.3541 45.3986 53.0957 43.4409 53.0957H34.496C34.4823 53.0957 34.469 53.0969 34.4556 53.0977L28.723 47.311L32.9608 45.0267C34.6942 44.0923 36.6915 43.87 38.5849 44.4L44.9983 46.1964C45.493 46.3349 45.8149 46.8096 45.7636 47.325C45.7099 47.8702 45.26 48.2811 44.7171 48.2811H36.564C36.1706 48.2811 35.8515 48.6032 35.8513 49.0003C35.8513 49.3974 36.17 49.7197 36.5634 49.72L41.5605 49.7248H44.6884C45.9162 49.7248 47.0872 49.2596 47.9856 48.4149L53.5838 43.1523C54.0014 42.7594 54.6376 42.7237 55.0958 43.0671C55.3792 43.279 55.5529 43.6047 55.5724 43.9602C55.5922 44.3157 55.4555 44.6586 55.1971 44.9014Z" fill="#F48200"/>
</svg>
