<svg width="80" height="80" viewBox="0 0 80 80" fill="none" xmlns="http://www.w3.org/2000/svg">
<path d="M73.641 59.4226L40 78.8453L6.35898 59.4226V20.5774L40 1.1547L73.641 20.5774V59.4226Z" stroke="#F48200" stroke-width="2"/>
<rect x="34" y="22.8271" width="12.4138" height="9.10345" fill="#FBD4A8"/>
<rect x="22.8281" y="48.0684" width="12.4138" height="9.10345" fill="#FBD4A8"/>
<rect x="44.7578" y="48.0684" width="12.4138" height="9.10345" fill="#FBD4A8"/>
<path d="M56.4348 47.0435H51.7391V40C51.7391 39.568 51.3885 39.2174 50.9565 39.2174H40.7826V32.9565H45.4783C46.3415 32.9565 47.0435 32.2545 47.0435 31.3913V23.5652C47.0435 22.702 46.3415 22 45.4783 22H34.5217C33.6585 22 32.9565 22.702 32.9565 23.5652V31.3913C32.9565 32.2545 33.6585 32.9565 34.5217 32.9565H39.2174V39.2174H29.0435C28.6115 39.2174 28.2609 39.568 28.2609 40V47.0435H23.5652C22.702 47.0435 22 47.7455 22 48.6087V56.4348C22 57.298 22.702 58 23.5652 58H34.5217C35.385 58 36.087 57.298 36.087 56.4348V48.6087C36.087 47.7455 35.385 47.0435 34.5217 47.0435H29.8261V40.7826H50.1739V47.0435H45.4783C44.615 47.0435 43.913 47.7455 43.913 48.6087V56.4348C43.913 57.298 44.615 58 45.4783 58H56.4348C57.298 58 58 57.298 58 56.4348V48.6087C58 47.7455 57.298 47.0435 56.4348 47.0435ZM34.5217 48.6079V56.4348H23.5652V48.6087L29.0388 48.6079C29.0403 48.6079 29.0419 48.6087 29.0435 48.6087C29.045 48.6087 29.0466 48.6079 29.0482 48.6079H34.5217ZM34.5217 31.3913V23.5652L45.4783 23.5644V31.3913H34.5217ZM56.4348 56.4348H45.4783V48.6087L50.9518 48.6079C50.9534 48.6079 50.955 48.6087 50.9565 48.6087C50.9581 48.6087 50.9597 48.6079 50.9612 48.6079H56.4348V56.4348Z" fill="#F48200"/>
</svg>
