<svg width="80" height="80" viewBox="0 0 80 80" fill="none" xmlns="http://www.w3.org/2000/svg">
<path d="M73.641 59.4226L40 78.8453L6.35898 59.4226V20.5774L40 1.1547L73.641 20.5774V59.4226Z" stroke="#F48200" stroke-width="2"/>
<path d="M35 38L38 41L45 34L48 34.5V37L40 45L38 46L36.5 45.5L32 41V38.5L35 38Z" fill="#FBD4A8"/>
<path d="M34.5 26L27 28L26.5 29.5V43L27.5 47.5L30.5 51.5L38 56L40 57L41.5 56.5L49 52L52 48.5L53.5 43.5L53 28L46.5 26.5L40 22.5L34.5 26Z" fill="#FBD4A8"/>
<path d="M35 29L40 26L45 28.5L50.5 30V31V44L50 47L47.5 50L40 54L33 50L30.5 47.5L29 43L29.5 30L35 29Z" fill="#FBD4A8"/>
<path d="M35 38L38 41L45 34L48 34.5V37L40 45L38 46L36.5 45.5L32 41V38.5L35 38Z" fill="white"/>
<path d="M53.4839 35.6446C53.7689 35.6446 54 36.4457 54 36.1606L53.9999 28.7669C53.9999 27.7477 53.2054 26.9086 52.191 26.8568C46.0707 26.5451 42.7813 24.0422 41.3653 22.578C41.0049 22.2053 40.52 22 40 22C39.4799 22 38.995 22.2053 38.6347 22.5779C37.2186 24.0421 33.9292 26.5451 27.8088 26.8568C26.7945 26.9086 26 27.7476 26 28.7669V43.155C26 47.2988 28.2295 51.1603 31.8186 53.2325L37.657 56.6027C38.3797 57.0202 39.1897 57.2289 40 57.2289C40.8101 57.2289 41.6204 57.0202 42.3429 56.6028L48.1815 53.2326C51.7704 51.1603 54 47.2989 54 43.1551V36.1606C54 35.8756 53.7689 35.6446 53.4839 35.6446C53.1989 35.6446 52.9679 35.8756 52.9679 36.1606V43.1551C52.9679 46.9313 50.9361 50.4503 47.6654 52.3388L41.8268 55.709C40.7 56.3599 39.3 56.3598 38.1731 55.709L32.3346 52.3388C29.0639 50.4503 27.0321 46.9313 27.0321 43.1551V28.7669C27.0321 28.2976 27.3964 27.9113 27.8614 27.8876C34.3353 27.5579 37.8548 24.869 39.3767 23.2955C39.5408 23.1257 39.7622 23.0322 40 23.0322C40.2378 23.0322 40.4591 23.1257 40.6233 23.2955C42.145 24.869 45.6646 27.5579 52.1384 27.8876C52.6035 27.9114 52.9678 28.2976 52.9678 28.7669L52.9679 36.1606C52.9679 36.4457 53.1989 35.6446 53.4839 35.6446Z" fill="#F48200"/>
<path d="M29.2973 35.6445C29.0123 35.6445 28.7812 35.8754 28.7812 36.1605V43.155C28.7812 46.3084 30.4779 49.2473 33.2091 50.8248L39.0478 54.1952C39.3376 54.3623 39.6671 54.4507 40.0006 54.4507C40.3341 54.4507 40.6636 54.3623 40.9536 54.1951L46.7923 50.8248C49.5234 49.2473 51.2201 46.3084 51.2201 43.155V30.6688C51.2201 30.0596 50.7654 29.5433 50.1629 29.468C45.5341 28.8858 42.4892 27.1273 40.7492 25.7541C40.3085 25.4074 39.6928 25.4074 39.2516 25.7546C37.5122 27.1273 34.4672 28.8858 29.8389 29.4679C29.236 29.5433 28.7813 30.0596 28.7813 30.6688L28.7812 36.1605C28.7812 36.4456 29.0123 35.6445 29.2973 35.6445C29.5823 35.6445 29.8135 36.4456 29.8135 36.1605V30.6688C29.8135 30.579 29.8794 30.503 29.9673 30.4921C34.8316 29.8802 38.0487 28.0188 39.8904 26.5654C39.9552 26.5143 40.0459 26.5142 40.1104 26.5649C41.9526 28.0188 45.1697 29.8803 50.0345 30.4921C50.1219 30.503 50.1879 30.579 50.1879 30.6688V43.155C50.1879 45.941 48.689 48.5374 46.2762 49.931L40.4379 53.3012C40.1714 53.4549 39.8298 53.4547 39.5638 53.3013L33.7253 49.9311C31.3125 48.5374 29.8135 45.941 29.8135 43.155V36.1605C29.8134 35.8754 29.5824 35.6445 29.2973 35.6445Z" fill="#F48200"/>
<path d="M33.7458 38.4027C34.1649 38.4027 34.5589 38.5659 34.8551 38.8622L37.5518 41.5581C37.7534 41.7597 38.08 41.7596 38.2816 41.5581L41.2356 38.6041C41.4371 38.4025 41.4371 38.0758 41.2356 37.8743C41.034 37.6728 40.7073 37.6728 40.5058 37.8743L37.9167 40.4634L35.585 38.1324C35.0938 37.6412 34.4407 37.3707 33.7459 37.3707C33.051 37.3707 32.3979 37.6412 31.9067 38.1323C31.4152 38.6239 31.1445 39.2772 31.1445 39.9721C31.1445 40.6671 31.4153 41.3203 31.9067 41.8114L36.0769 45.9815C36.5678 46.4733 37.2212 46.744 37.9168 46.744C38.6119 46.744 39.265 46.4732 39.7555 45.9819L48.0964 37.6409C48.5881 37.1496 48.8588 36.4964 48.8588 35.8015C48.8588 35.1066 48.5881 34.4533 48.0966 33.9618C47.6055 33.4706 46.9523 33.2002 46.2575 33.2002C45.5627 33.2002 44.9095 33.4707 44.4184 33.9618L40.5058 37.8743C40.3042 38.0759 41.034 37.6727 41.2356 37.8743C41.4371 38.0758 41.0341 38.8056 41.2356 38.6041L45.1481 34.6916C45.4444 34.3953 45.8383 34.2323 46.2575 34.2323C46.6766 34.2323 47.0705 34.3953 47.3668 34.6916C47.6634 34.9882 47.8268 35.3823 47.8268 35.8015C47.8268 36.2207 47.6635 36.6145 47.3668 36.9109L39.0254 45.2524C38.7295 45.5487 38.3358 45.712 37.9168 45.712C37.4972 45.712 37.1032 45.5487 36.8071 45.252L32.6364 41.0814C32.34 40.7851 32.1767 40.3912 32.1767 39.9721C32.1767 39.5529 32.34 39.1587 32.6366 38.8622C32.9328 38.5659 33.3267 38.4027 33.7458 38.4027Z" fill="#F48200"/>
</svg>
