<svg width="80" height="80" viewBox="0 0 80 80" fill="none" xmlns="http://www.w3.org/2000/svg">
<path d="M73.641 59.4226L40 78.8453L6.35898 59.4226V20.5774L40 1.1547L73.641 20.5774V59.4226Z" stroke="#F48200" stroke-width="2"/>
<path d="M33.1328 22.7056L26.8477 28.0373V29.3791L31.2613 32.9453L34.2273 34.1812L34.8276 33.5456L35.0748 31.4623L40.8655 31.9214L49.3398 35.5582L53.3651 39.301L52.9767 36.335L50.2579 31.1445L46.621 27.6842L40.3359 25.5656H34.8276L34.2273 22.7056H33.1328Z" fill="#FBD4A8"/>
<path d="M46.9376 57.2383L53.2227 51.9065V50.5648L48.809 46.9985L45.843 45.7627L45.2427 46.3983L44.9955 48.4815L39.2048 48.0225L30.7305 44.3856L26.7052 40.6428L27.0936 43.6088L29.8124 48.7993L33.4493 52.2596L39.7344 54.3782H45.2427L45.843 57.2383H46.9376Z" fill="#FBD4A8"/>
<path d="M26.9334 30.2801L32.5278 34.4759C33.6839 35.3427 35.3346 34.5169 35.3346 33.0724V31.9181C41.759 32.0461 46.1479 34.2677 48.7224 36.14C51.6011 38.2337 52.9034 40.3583 52.9157 40.3787C53.051 40.6042 53.3197 40.7105 53.5716 40.6407C53.8243 40.5707 53.9992 40.3408 53.9992 40.0786C53.9992 31.7161 47.1958 24.9127 38.8333 24.9127H35.3346V23.7571C35.3346 22.3123 33.6834 21.4868 32.5278 22.3537L26.9334 26.5495C25.6891 27.4827 25.6887 29.3465 26.9334 30.2801ZM27.6333 27.4828L33.2277 23.287C33.6145 22.997 34.168 23.2705 34.168 23.7571C34.168 25.9452 34.1682 25.1416 34.1669 27.2456C34.1667 27.5677 34.4277 27.829 34.7499 27.8292C35.0733 27.8292 35.3333 27.5673 35.3335 27.2463L35.3343 26.0793H38.8333C45.9113 26.0793 51.7792 31.3588 52.7053 38.1869C48.8508 33.7814 42.6199 30.7461 34.7513 30.7457C34.4293 30.7457 34.168 31.007 34.168 31.329V33.0724C34.168 33.5581 33.6156 33.8333 33.2277 33.5425L27.6333 29.3468C27.0118 28.8806 27.0113 27.9493 27.6333 27.4828Z" fill="#F48200"/>
<path d="M53.0659 49.8769L47.4714 45.6811C46.3154 44.8142 44.6646 45.64 44.6646 47.0846V48.2389C38.2402 48.1108 33.8514 45.8893 31.2768 44.0169C28.3981 41.9232 27.0958 39.7987 27.0835 39.7783C26.9486 39.5535 26.6803 39.4465 26.4276 39.5162C26.1749 39.5862 26 39.8162 26 40.0784C26 48.4409 32.8034 55.2443 41.1659 55.2443H44.6646V56.3999C44.6646 57.8459 46.3168 58.6694 47.4714 57.8033L53.0659 53.6075C54.31 52.6745 54.3108 50.8106 53.0659 49.8769ZM52.366 52.6742L46.7715 56.8701C46.3845 57.1604 45.8312 56.8862 45.8312 56.3999C45.8312 54.2119 45.831 55.0155 45.8323 52.9115C45.8325 52.5894 45.5715 52.3281 45.2493 52.3278C44.9274 52.3276 44.6659 52.5884 44.6657 52.9108L44.665 54.0777H41.1659C34.0879 54.0777 28.22 48.7983 27.2939 41.9701C31.1025 46.323 37.2975 49.411 45.2479 49.4113C45.5699 49.4113 45.8312 49.1501 45.8312 48.828V47.0847C45.8312 46.601 46.382 46.3226 46.7715 46.6145L52.3659 50.8102C52.9875 51.2764 52.9879 52.2077 52.366 52.6742Z" fill="#F48200"/>
</svg>
