<svg width="80" height="80" viewBox="0 0 80 80" fill="none" xmlns="http://www.w3.org/2000/svg">
<path d="M73.641 59.4226L40 78.8453L6.35898 59.4226V20.5774L40 1.1547L73.641 20.5774V59.4226Z" stroke="#F48200" stroke-width="2"/>
<rect x="24.3594" y="34.6035" width="5.10123" height="13.9434" rx="2.55062" fill="#FBD4A8"/>
<rect x="49.5273" y="34.6035" width="5.10123" height="13.9434" rx="2.55062" fill="#FBD4A8"/>
<rect x="36.9453" y="53.9883" width="6.12148" height="4.08099" rx="2.04049" fill="#FBD4A8"/>
<path d="M52.413 33.913C52.413 26.7814 46.6317 21 39.5 21C32.3683 21 26.587 26.7814 26.587 33.913C24.7433 34.1426 23 35.3478 23 38.1457V44.8891C23 48.0457 25.2096 49.1935 27.3043 49.1935H29.3848C29.781 49.1935 30.1022 48.8723 30.1022 48.4761V34.5874C30.1022 34.1912 29.781 33.87 29.3848 33.87H28.0217C28.0217 27.5308 33.1608 22.3917 39.5 22.3917C45.8392 22.3917 50.9783 27.5308 50.9783 33.87H49.6152C49.219 33.87 48.8978 34.1912 48.8978 34.5874V48.4546C48.8978 48.8507 49.219 49.172 49.6152 49.172H50.9783C50.7774 54.1004 48.41 55.2554 43.6824 55.4635V54.9828C43.6824 54.1904 43.0401 53.548 42.2476 53.548H37.7352C36.9428 53.548 36.3004 54.1904 36.3004 54.9828V57.3143C36.3004 58.1068 36.9428 58.7491 37.7352 58.7491H42.262C43.0544 58.7491 43.6967 58.1068 43.6967 57.3143V56.8983C48.245 56.6902 52.1763 55.7504 52.413 49.1289C54.2567 48.8993 56 47.6941 56 44.8963V38.1528C56 35.3407 54.2639 34.1426 52.413 33.913ZM28.6674 35.2546V47.7372H27.2685C26.2067 47.7372 24.3989 47.3641 24.3989 44.8676V38.1241C24.3989 35.6491 26.1852 35.2546 27.2685 35.2546H28.6674ZM42.262 56.2311V57.3215H37.7352V54.99H42.262V56.2311ZM54.5652 44.8891C54.5652 47.3641 52.7789 47.7587 51.6957 47.7587H50.3326V35.3048H51.7315C52.7933 35.3048 54.6011 35.6778 54.6011 38.1743L54.5652 44.8891Z" fill="#F48200"/>
</svg>
